<?xml version="1.0" encoding="utf-8" standalone="no"?>
<!DOCTYPE svg PUBLIC "-//W3C//DTD SVG 1.1//EN"
  "http://www.w3.org/Graphics/SVG/1.1/DTD/svg11.dtd">
<svg xmlns:xlink="http://www.w3.org/1999/xlink" width="967.32pt" height="471.591406pt" viewBox="0 0 967.32 471.591406" xmlns="http://www.w3.org/2000/svg" version="1.1">
 <metadata>
  <rdf:RDF xmlns:dc="http://purl.org/dc/elements/1.1/" xmlns:cc="http://creativecommons.org/ns#" xmlns:rdf="http://www.w3.org/1999/02/22-rdf-syntax-ns#">
   <cc:Work>
    <dc:type rdf:resource="http://purl.org/dc/dcmitype/StillImage"/>
    <dc:date>2024-08-01T17:56:50.855489</dc:date>
    <dc:format>image/svg+xml</dc:format>
    <dc:creator>
     <cc:Agent>
      <dc:title>Matplotlib v3.5.3, https://matplotlib.org/</dc:title>
     </cc:Agent>
    </dc:creator>
   </cc:Work>
  </rdf:RDF>
 </metadata>
 <defs>
  <style type="text/css">*{stroke-linejoin: round; stroke-linecap: butt}</style>
 </defs>
 <g id="figure_1">
  <g id="patch_1">
   <path d="M -0 471.591406 
L 967.32 471.591406 
L 967.32 0 
L -0 0 
L -0 471.591406 
z
" style="fill: none"/>
  </g>
  <g id="axes_1">
   <g id="patch_2">
    <path d="M 199.33 403.76 
L 478.083926 403.76 
L 478.083926 109.536 
L 199.33 109.536 
L 199.33 403.76 
z
" style="fill: none"/>
   </g>
   <g id="PolyCollection_1">
    <defs>
     <path id="m6b906ddbc0" d="M 212.000633 -348.681588 
L 212.000633 -324.448971 
L 213.416346 -316.082144 
L 214.832059 -308.544562 
L 216.247773 -303.564427 
L 217.663486 -297.991008 
L 219.079199 -293.059176 
L 220.494912 -288.737457 
L 221.910625 -284.994373 
L 223.326338 -281.798449 
L 224.742052 -279.118209 
L 226.157765 -276.922176 
L 227.573478 -275.178875 
L 228.989191 -273.85683 
L 230.404904 -272.924564 
L 231.820618 -272.350602 
L 233.236331 -272.103467 
L 234.652044 -272.151684 
L 236.067757 -272.463777 
L 237.48347 -273.008269 
L 238.899183 -273.753684 
L 240.314897 -274.668547 
L 241.73061 -275.721381 
L 243.146323 -276.880711 
L 244.562036 -278.11506 
L 245.977749 -279.392953 
L 247.393463 -280.682913 
L 248.809176 -281.953464 
L 250.224889 -283.17313 
L 251.640602 -284.310436 
L 253.056315 -285.333905 
L 254.472028 -286.212061 
L 255.887742 -286.913429 
L 257.303455 -287.406531 
L 258.719168 -287.659893 
L 260.134881 -287.642038 
L 261.550594 -287.32149 
L 262.966308 -286.666774 
L 264.382021 -285.646412 
L 265.797734 -284.228929 
L 267.213447 -282.382849 
L 268.62916 -280.076697 
L 270.044873 -277.278995 
L 271.460587 -273.958269 
L 272.8763 -270.083041 
L 274.292013 -265.621836 
L 275.707726 -260.543431 
L 277.123439 -254.847156 
L 278.539153 -248.591685 
L 279.954866 -241.84251 
L 281.370579 -234.665121 
L 282.786292 -227.125009 
L 284.202005 -219.287666 
L 285.617718 -211.218584 
L 287.033432 -202.983253 
L 288.449145 -194.647164 
L 289.864858 -186.275809 
L 291.280571 -177.93468 
L 292.696284 -169.689266 
L 294.111998 -161.60506 
L 295.527711 -153.747553 
L 296.943424 -146.182236 
L 298.359137 -138.9746 
L 299.77485 -132.190137 
L 301.190563 -125.894337 
L 302.606277 -120.152693 
L 304.02199 -115.030694 
L 305.437703 -110.593833 
L 306.853416 -106.9076 
L 308.269129 -104.023847 
L 309.684843 -101.914765 
L 311.100556 -100.523713 
L 312.516269 -99.794012 
L 313.931982 -99.66898 
L 315.347695 -100.091937 
L 316.763408 -101.006204 
L 318.179122 -102.355099 
L 319.594835 -104.081943 
L 321.010548 -106.130054 
L 322.426261 -108.442753 
L 323.841974 -110.963358 
L 325.257688 -113.635191 
L 326.673401 -116.401569 
L 328.089114 -119.205814 
L 329.504827 -121.991243 
L 330.92054 -124.701178 
L 332.336253 -127.278938 
L 333.751967 -129.667842 
L 335.16768 -131.811209 
L 336.583393 -133.652361 
L 337.999106 -135.134615 
L 339.414819 -136.203109 
L 340.830533 -136.844771 
L 342.246246 -137.088321 
L 343.661959 -136.964295 
L 345.077672 -136.503232 
L 346.493385 -135.735667 
L 347.909098 -134.692138 
L 349.324812 -133.403182 
L 350.740525 -131.899335 
L 352.156238 -130.211134 
L 353.571951 -128.369117 
L 354.987664 -126.40382 
L 356.403378 -124.345781 
L 357.819091 -122.225536 
L 359.234804 -120.073622 
L 360.650517 -117.920576 
L 362.06623 -115.796935 
L 363.481944 -113.733236 
L 364.897657 -111.760016 
L 366.31337 -109.907812 
L 367.729083 -108.20716 
L 369.144796 -106.688599 
L 370.560509 -105.382649 
L 371.976223 -104.309383 
L 373.391936 -103.459996 
L 374.807649 -102.820739 
L 376.223362 -102.377864 
L 377.639075 -102.11762 
L 379.054789 -102.026261 
L 380.470502 -102.090036 
L 381.886215 -102.295198 
L 383.301928 -102.627996 
L 384.717641 -103.074683 
L 386.133354 -103.621509 
L 387.549068 -104.254725 
L 388.964781 -104.960583 
L 390.380494 -105.725334 
L 391.796207 -106.535229 
L 393.21192 -107.376519 
L 394.627634 -108.235456 
L 396.043347 -109.098289 
L 397.45906 -109.951272 
L 398.874773 -110.780654 
L 400.290486 -111.572687 
L 401.706199 -112.313622 
L 403.121913 -112.990821 
L 404.537626 -113.601314 
L 405.953339 -114.147111 
L 407.369052 -114.630261 
L 408.784765 -115.052814 
L 410.200479 -115.41682 
L 411.616192 -115.724329 
L 413.031905 -115.977391 
L 414.447618 -116.178055 
L 415.863331 -116.328372 
L 417.279044 -116.430391 
L 418.694758 -116.486162 
L 420.110471 -116.497736 
L 421.526184 -116.467162 
L 422.941897 -116.39649 
L 424.35761 -116.287769 
L 425.773324 -116.143051 
L 427.189037 -115.964384 
L 428.60475 -115.753819 
L 430.020463 -115.513405 
L 431.436176 -115.245192 
L 432.851889 -114.951231 
L 434.267603 -114.633571 
L 435.683316 -114.294262 
L 437.099029 -113.935354 
L 438.514742 -113.558897 
L 439.930455 -113.16694 
L 441.346169 -112.761534 
L 442.761882 -112.344729 
L 444.177595 -111.918574 
L 445.593308 -111.485119 
L 447.009021 -111.046414 
L 448.424734 -110.60451 
L 449.840448 -110.161455 
L 451.256161 -109.719301 
L 452.671874 -109.280096 
L 454.087587 -108.845891 
L 455.5033 -108.418735 
L 456.919014 -108.000679 
L 458.334727 -107.593772 
L 459.75044 -107.200064 
L 461.166153 -106.821606 
L 462.581866 -106.460446 
L 463.997579 -106.118636 
L 465.413293 -105.798224 
L 465.413293 -112.040724 
L 465.413293 -112.040724 
L 463.997579 -111.901209 
L 462.581866 -111.811278 
L 461.166153 -111.768025 
L 459.75044 -111.768543 
L 458.334727 -111.809925 
L 456.919014 -111.889266 
L 455.5033 -112.003658 
L 454.087587 -112.150195 
L 452.671874 -112.325971 
L 451.256161 -112.528078 
L 449.840448 -112.753611 
L 448.424734 -112.999664 
L 447.009021 -113.263328 
L 445.593308 -113.541699 
L 444.177595 -113.83187 
L 442.761882 -114.130933 
L 441.346169 -114.435983 
L 439.930455 -114.744113 
L 438.514742 -115.052417 
L 437.099029 -115.357987 
L 435.683316 -115.657918 
L 434.267603 -115.949304 
L 432.851889 -116.229236 
L 431.436176 -116.49481 
L 430.020463 -116.743119 
L 428.60475 -116.971255 
L 427.189037 -117.176313 
L 425.773324 -117.355386 
L 424.35761 -117.505568 
L 422.941897 -117.623951 
L 421.526184 -117.707631 
L 420.110471 -117.753699 
L 418.694758 -117.75925 
L 417.279044 -117.721377 
L 415.863331 -117.637173 
L 414.447618 -117.503733 
L 413.031905 -117.318149 
L 411.616192 -117.077515 
L 410.200479 -116.778925 
L 408.784765 -116.419472 
L 407.369052 -115.996249 
L 405.953339 -115.50635 
L 404.537626 -114.946869 
L 403.121913 -114.314899 
L 401.706199 -113.607598 
L 400.290486 -112.82993 
L 398.874773 -112.002019 
L 397.45906 -111.145728 
L 396.043347 -110.282925 
L 394.627634 -109.435474 
L 393.21192 -108.625241 
L 391.796207 -107.87409 
L 390.380494 -107.203888 
L 388.964781 -106.636499 
L 387.549068 -106.193789 
L 386.133354 -105.897623 
L 384.717641 -105.769866 
L 383.301928 -105.832384 
L 381.886215 -106.107042 
L 380.470502 -106.615705 
L 379.054789 -107.380239 
L 377.639075 -108.422509 
L 376.223362 -109.76438 
L 374.807649 -111.427718 
L 373.391936 -113.434387 
L 371.976223 -115.806254 
L 370.560509 -118.565183 
L 369.144796 -121.724368 
L 367.729083 -125.246362 
L 366.31337 -129.07539 
L 364.897657 -133.155649 
L 363.481944 -137.431339 
L 362.06623 -141.846658 
L 360.650517 -146.345805 
L 359.234804 -150.872978 
L 357.819091 -155.372376 
L 356.403378 -159.788198 
L 354.987664 -164.064641 
L 353.571951 -168.145906 
L 352.156238 -171.976189 
L 350.740525 -175.49969 
L 349.324812 -178.660608 
L 347.909098 -181.403141 
L 346.493385 -183.671488 
L 345.077672 -185.409847 
L 343.661959 -186.562417 
L 342.246246 -187.073396 
L 340.830533 -186.886983 
L 339.414819 -185.947377 
L 337.999106 -184.201885 
L 336.583393 -181.669302 
L 335.16768 -178.439912 
L 333.751967 -174.607108 
L 332.336253 -170.264283 
L 330.92054 -165.504829 
L 329.504827 -160.422138 
L 328.089114 -155.109604 
L 326.673401 -149.660619 
L 325.257688 -144.168576 
L 323.841974 -138.726867 
L 322.426261 -133.428884 
L 321.010548 -128.368021 
L 319.594835 -123.637669 
L 318.179122 -119.331222 
L 316.763408 -115.542072 
L 315.347695 -112.363612 
L 313.931982 -109.889234 
L 312.516269 -108.21233 
L 311.100556 -107.426294 
L 309.684843 -107.624518 
L 308.269129 -108.900394 
L 306.853416 -111.347254 
L 305.437703 -115.013515 
L 304.02199 -119.823515 
L 302.606277 -125.680344 
L 301.190563 -132.487091 
L 299.77485 -140.146845 
L 298.359137 -148.562696 
L 296.943424 -157.637732 
L 295.527711 -167.275044 
L 294.111998 -177.377721 
L 292.696284 -187.848852 
L 291.280571 -198.591526 
L 289.864858 -209.508833 
L 288.449145 -220.503862 
L 287.033432 -231.479703 
L 285.617718 -242.339445 
L 284.202005 -252.986177 
L 282.786292 -263.322989 
L 281.370579 -273.252969 
L 279.954866 -282.679208 
L 278.539153 -291.504795 
L 277.123439 -299.632819 
L 275.707726 -306.96637 
L 274.292013 -313.418447 
L 272.8763 -318.98832 
L 271.460587 -323.719672 
L 270.044873 -327.656556 
L 268.62916 -330.843025 
L 267.213447 -333.32313 
L 265.797734 -335.140924 
L 264.382021 -336.34046 
L 262.966308 -336.965789 
L 261.550594 -337.060964 
L 260.134881 -336.670038 
L 258.719168 -335.837062 
L 257.303455 -334.606089 
L 255.887742 -333.021172 
L 254.472028 -331.126362 
L 253.056315 -328.965712 
L 251.640602 -326.583274 
L 250.224889 -324.023101 
L 248.809176 -321.329244 
L 247.393463 -318.545757 
L 245.977749 -315.716691 
L 244.562036 -312.886099 
L 243.146323 -310.098033 
L 241.73061 -307.396546 
L 240.314897 -304.825689 
L 238.899183 -302.429516 
L 237.48347 -300.252077 
L 236.067757 -298.337427 
L 234.652044 -296.729617 
L 233.236331 -295.472699 
L 231.820618 -294.610725 
L 230.404904 -294.187749 
L 228.989191 -294.247822 
L 227.573478 -294.834997 
L 226.157765 -295.993325 
L 224.742052 -297.76686 
L 223.326338 -300.199653 
L 221.910625 -303.335758 
L 220.494912 -307.219225 
L 219.079199 -311.894108 
L 217.663486 -317.404459 
L 216.247773 -323.79433 
L 214.832059 -332.374121 
L 213.416346 -340.06863 
L 212.000633 -348.681588 
z
" style="stroke: #ff0000; stroke-opacity: 0.1"/>
    </defs>
    <g clip-path="url(#p05d61eb8ce)">
     <use xlink:href="#m6b906ddbc0" x="0" y="471.591406" style="fill: #ff0000; fill-opacity: 0.1; stroke: #ff0000; stroke-opacity: 0.1"/>
    </g>
   </g>
   <g id="PathCollection_1">
    <defs>
     <path id="m9e1a8e5745" d="M 0 -6.708204 
L -1.506086 -2.072949 
L -6.379881 -2.072949 
L -2.436898 0.791796 
L -3.942983 5.427051 
L -0 2.562306 
L 3.942983 5.427051 
L 2.436898 0.791796 
L 6.379881 -2.072949 
L 1.506086 -2.072949 
z
" style="stroke: #000000; stroke-opacity: 0.5"/>
    </defs>
    <g clip-path="url(#p05d61eb8ce)">
     <use xlink:href="#m9e1a8e5745" x="268.62916" y="166.131546" style="fill: #ff0000; fill-opacity: 0.5; stroke: #000000; stroke-opacity: 0.5"/>
     <use xlink:href="#m9e1a8e5745" x="325.257688" y="342.689523" style="fill: #ff0000; fill-opacity: 0.5; stroke: #000000; stroke-opacity: 0.5"/>
     <use xlink:href="#m9e1a8e5745" x="381.886215" y="367.390286" style="fill: #ff0000; fill-opacity: 0.5; stroke: #000000; stroke-opacity: 0.5"/>
    </g>
   </g>
   <g id="PolyCollection_2">
    <defs>
     <path id="m58cc8a1d33" d="M 212.000633 -348.681588 
L 212.000633 -324.448971 
L 213.416346 -320.427374 
L 214.832059 -316.639104 
L 216.247773 -313.076202 
L 217.663486 -309.730711 
L 219.079199 -306.59467 
L 220.494912 -303.660123 
L 221.910625 -300.91911 
L 223.326338 -298.363674 
L 224.742052 -295.985856 
L 226.157765 -293.777697 
L 227.573478 -291.731239 
L 228.989191 -289.838524 
L 230.404904 -288.091593 
L 231.820618 -286.482488 
L 233.236331 -285.003251 
L 234.652044 -283.645922 
L 236.067757 -282.402544 
L 237.48347 -281.265159 
L 238.899183 -280.225807 
L 240.314897 -279.276531 
L 241.73061 -278.409372 
L 243.146323 -277.616372 
L 244.562036 -276.889572 
L 245.977749 -276.221014 
L 247.393463 -275.602739 
L 248.809176 -275.026789 
L 250.224889 -274.485206 
L 251.640602 -273.970032 
L 253.056315 -273.473307 
L 254.472028 -272.987074 
L 255.887742 -272.503373 
L 257.303455 -272.014248 
L 258.719168 -271.511739 
L 260.134881 -270.987887 
L 261.550594 -270.434735 
L 262.966308 -269.844324 
L 264.382021 -269.208696 
L 265.797734 -268.519892 
L 267.213447 -267.769954 
L 268.62916 -266.950924 
L 270.044873 -266.054843 
L 271.460587 -265.073752 
L 272.8763 -263.999693 
L 274.292013 -262.824709 
L 275.707726 -261.54091 
L 277.123439 -260.148953 
L 278.539153 -258.666086 
L 279.954866 -257.111461 
L 281.370579 -255.504233 
L 282.786292 -253.863557 
L 284.202005 -252.208585 
L 285.617718 -250.558472 
L 287.033432 -248.932372 
L 288.449145 -247.34944 
L 289.864858 -245.828828 
L 291.280571 -244.38969 
L 292.696284 -243.051182 
L 294.111998 -241.832456 
L 295.527711 -240.752667 
L 296.943424 -239.830969 
L 298.359137 -239.086515 
L 299.77485 -238.53846 
L 301.190563 -238.205958 
L 302.606277 -238.108162 
L 304.02199 -238.264226 
L 305.437703 -238.693305 
L 306.853416 -239.414553 
L 308.269129 -240.441166 
L 309.684843 -241.751557 
L 311.100556 -243.311546 
L 312.516269 -245.086938 
L 313.931982 -247.043537 
L 315.347695 -249.147147 
L 316.763408 -251.36357 
L 318.179122 -253.658612 
L 319.594835 -255.998075 
L 321.010548 -258.347764 
L 322.426261 -260.673483 
L 323.841974 -262.941036 
L 325.257688 -265.116225 
L 326.673401 -267.164856 
L 328.089114 -269.052732 
L 329.504827 -270.745657 
L 330.92054 -272.209434 
L 332.336253 -273.409868 
L 333.751967 -274.312763 
L 335.16768 -274.883922 
L 336.583393 -275.089149 
L 337.999106 -274.894247 
L 339.414819 -274.2664 
L 340.830533 -273.204486 
L 342.246246 -271.739083 
L 343.661959 -269.902144 
L 345.077672 -267.725626 
L 346.493385 -265.241483 
L 347.909098 -262.481671 
L 349.324812 -259.478144 
L 350.740525 -256.262857 
L 352.156238 -252.867765 
L 353.571951 -249.324823 
L 354.987664 -245.665987 
L 356.403378 -241.923212 
L 357.819091 -238.128451 
L 359.234804 -234.313661 
L 360.650517 -230.510796 
L 362.06623 -226.751812 
L 363.481944 -223.068663 
L 364.897657 -219.493304 
L 366.31337 -216.05769 
L 367.729083 -212.793777 
L 369.144796 -209.73352 
L 370.560509 -206.908858 
L 371.976223 -204.341192 
L 373.391936 -202.022799 
L 374.807649 -199.940972 
L 376.223362 -198.083002 
L 377.639075 -196.43618 
L 379.054789 -194.987798 
L 380.470502 -193.725147 
L 381.886215 -192.635518 
L 383.301928 -191.706203 
L 384.717641 -190.924494 
L 386.133354 -190.277681 
L 387.549068 -189.753057 
L 388.964781 -189.337913 
L 390.380494 -189.01954 
L 391.796207 -188.785229 
L 393.21192 -188.622273 
L 394.627634 -188.517962 
L 396.043347 -188.459587 
L 397.45906 -188.434442 
L 398.874773 -188.429816 
L 400.290486 -188.433001 
L 401.706199 -188.43129 
L 403.121913 -188.413012 
L 404.537626 -188.375548 
L 405.953339 -188.32094 
L 407.369052 -188.251265 
L 408.784765 -188.168602 
L 410.200479 -188.07503 
L 411.616192 -187.972629 
L 413.031905 -187.863475 
L 414.447618 -187.749649 
L 415.863331 -187.633229 
L 417.279044 -187.516294 
L 418.694758 -187.400923 
L 420.110471 -187.289193 
L 421.526184 -187.183185 
L 422.941897 -187.084976 
L 424.35761 -186.996646 
L 425.773324 -186.920273 
L 427.189037 -186.857936 
L 428.60475 -186.811714 
L 430.020463 -186.783686 
L 431.436176 -186.775929 
L 432.851889 -186.790524 
L 434.267603 -186.829548 
L 435.683316 -186.89508 
L 437.099029 -186.9892 
L 438.514742 -187.113986 
L 439.930455 -187.271517 
L 441.346169 -187.463871 
L 442.761882 -187.693127 
L 444.177595 -187.961364 
L 445.593308 -188.27066 
L 447.009021 -188.623096 
L 448.424734 -189.020748 
L 449.840448 -189.465696 
L 451.256161 -189.960019 
L 452.671874 -190.505795 
L 454.087587 -191.105103 
L 455.5033 -191.760022 
L 456.919014 -192.472631 
L 458.334727 -193.245008 
L 459.75044 -194.079233 
L 461.166153 -194.977383 
L 462.581866 -195.941538 
L 463.997579 -196.973776 
L 465.413293 -198.076176 
L 465.413293 -248.761191 
L 465.413293 -248.761191 
L 463.997579 -238.691336 
L 462.581866 -229.697228 
L 461.166153 -221.740914 
L 459.75044 -214.784442 
L 458.334727 -208.789861 
L 456.919014 -203.71922 
L 455.5033 -199.534566 
L 454.087587 -196.197947 
L 452.671874 -193.671413 
L 451.256161 -191.917012 
L 449.840448 -190.896791 
L 448.424734 -190.5728 
L 447.009021 -190.907086 
L 445.593308 -191.861697 
L 444.177595 -193.398683 
L 442.761882 -195.480091 
L 441.346169 -198.06797 
L 439.930455 -201.124367 
L 438.514742 -204.611332 
L 437.099029 -208.490913 
L 435.683316 -212.725158 
L 434.267603 -217.276115 
L 432.851889 -222.105832 
L 431.436176 -227.176359 
L 430.020463 -232.449742 
L 428.60475 -237.888032 
L 427.189037 -243.453275 
L 425.773324 -249.10752 
L 424.35761 -254.812815 
L 422.941897 -260.53121 
L 421.526184 -266.224751 
L 420.110471 -271.855488 
L 418.694758 -277.385469 
L 417.279044 -282.776742 
L 415.863331 -287.991355 
L 414.447618 -292.991357 
L 413.031905 -297.738796 
L 411.616192 -302.19572 
L 410.200479 -306.324178 
L 408.784765 -310.086217 
L 407.369052 -313.443887 
L 405.953339 -316.359236 
L 404.537626 -318.794311 
L 403.121913 -320.711162 
L 401.706199 -322.072045 
L 400.290486 -322.864476 
L 398.874773 -323.125027 
L 397.45906 -322.895906 
L 396.043347 -322.219321 
L 394.627634 -321.13748 
L 393.21192 -319.692592 
L 391.796207 -317.926864 
L 390.380494 -315.882505 
L 388.964781 -313.601723 
L 387.549068 -311.126726 
L 386.133354 -308.499722 
L 384.717641 -305.762919 
L 383.301928 -302.958525 
L 381.886215 -300.128749 
L 380.470502 -297.315798 
L 379.054789 -294.561881 
L 377.639075 -291.909206 
L 376.223362 -289.399981 
L 374.807649 -287.076414 
L 373.391936 -284.980713 
L 371.976223 -283.155086 
L 370.560509 -281.641742 
L 369.144796 -280.475122 
L 367.729083 -279.644315 
L 366.31337 -279.121995 
L 364.897657 -278.880811 
L 363.481944 -278.893415 
L 362.06623 -279.132457 
L 360.650517 -279.570588 
L 359.234804 -280.180457 
L 357.819091 -280.934716 
L 356.403378 -281.806015 
L 354.987664 -282.767005 
L 353.571951 -283.790336 
L 352.156238 -284.848659 
L 350.740525 -285.914624 
L 349.324812 -286.960882 
L 347.909098 -287.960083 
L 346.493385 -288.884879 
L 345.077672 -289.707918 
L 343.661959 -290.401853 
L 342.246246 -290.939333 
L 340.830533 -291.293009 
L 339.414819 -291.435532 
L 337.999106 -291.340622 
L 336.583393 -291.006619 
L 335.16768 -290.45648 
L 333.751967 -289.714233 
L 332.336253 -288.803905 
L 330.92054 -287.749524 
L 329.504827 -286.575118 
L 328.089114 -285.304714 
L 326.673401 -283.962341 
L 325.257688 -282.572026 
L 323.841974 -281.157796 
L 322.426261 -279.743681 
L 321.010548 -278.353706 
L 319.594835 -277.0119 
L 318.179122 -275.742291 
L 316.763408 -274.568906 
L 315.347695 -273.515773 
L 313.931982 -272.606919 
L 312.516269 -271.866374 
L 311.100556 -271.318163 
L 309.684843 -270.986316 
L 308.269129 -270.894859 
L 306.853416 -271.067805 
L 305.437703 -271.518438 
L 304.02199 -272.230397 
L 302.606277 -273.182243 
L 301.190563 -274.352538 
L 299.77485 -275.719846 
L 298.359137 -277.262728 
L 296.943424 -278.959747 
L 295.527711 -280.789465 
L 294.111998 -282.730444 
L 292.696284 -284.761247 
L 291.280571 -286.860436 
L 289.864858 -289.006572 
L 288.449145 -291.17822 
L 287.033432 -293.35394 
L 285.617718 -295.512296 
L 284.202005 -297.631848 
L 282.786292 -299.691161 
L 281.370579 -301.668796 
L 279.954866 -303.543315 
L 278.539153 -305.29328 
L 277.123439 -306.897255 
L 275.707726 -308.333801 
L 274.292013 -309.583818 
L 272.8763 -310.648554 
L 271.460587 -311.539735 
L 270.044873 -312.269173 
L 268.62916 -312.848677 
L 267.213447 -313.290061 
L 265.797734 -313.605136 
L 264.382021 -313.805714 
L 262.966308 -313.903605 
L 261.550594 -313.910622 
L 260.134881 -313.838576 
L 258.719168 -313.69928 
L 257.303455 -313.504544 
L 255.887742 -313.266179 
L 254.472028 -312.995999 
L 253.056315 -312.705814 
L 251.640602 -312.407436 
L 250.224889 -312.112676 
L 248.809176 -311.833347 
L 247.393463 -311.581259 
L 245.977749 -311.368225 
L 244.562036 -311.206056 
L 243.146323 -311.106563 
L 241.73061 -311.081558 
L 240.314897 -311.142854 
L 238.899183 -311.30226 
L 237.48347 -311.57159 
L 236.067757 -311.962654 
L 234.652044 -312.487264 
L 233.236331 -313.157233 
L 231.820618 -313.98437 
L 230.404904 -314.980489 
L 228.989191 -316.157401 
L 227.573478 -317.526916 
L 226.157765 -319.100848 
L 224.742052 -320.891007 
L 223.326338 -322.909205 
L 221.910625 -325.167253 
L 220.494912 -327.676964 
L 219.079199 -330.450149 
L 217.663486 -333.498619 
L 216.247773 -336.834187 
L 214.832059 -340.468663 
L 213.416346 -344.41386 
L 212.000633 -348.681588 
z
" style="stroke: #808080; stroke-opacity: 0.1"/>
    </defs>
    <g clip-path="url(#p05d61eb8ce)">
     <use xlink:href="#m58cc8a1d33" x="0" y="471.591406" style="fill: #808080; fill-opacity: 0.1; stroke: #808080; stroke-opacity: 0.1"/>
    </g>
   </g>
   <g id="matplotlib.axis_1">
    <g id="xtick_1">
     <g id="line2d_1">
      <defs>
       <path id="ma5bd85925c" d="M 0 0 
L 0 3.5 
" style="stroke: #000000; stroke-width: 0.8"/>
      </defs>
      <g>
       <use xlink:href="#ma5bd85925c" x="212.000633" y="403.76" style="stroke: #000000; stroke-width: 0.8"/>
      </g>
     </g>
     <g id="text_1">
      <!-- 0 -->
      <g transform="translate(204.365633 428.99625)scale(0.24 -0.24)">
       <defs>
        <path id="DejaVuSans-30" d="M 2034 4250 
Q 1547 4250 1301 3770 
Q 1056 3291 1056 2328 
Q 1056 1369 1301 889 
Q 1547 409 2034 409 
Q 2525 409 2770 889 
Q 3016 1369 3016 2328 
Q 3016 3291 2770 3770 
Q 2525 4250 2034 4250 
z
M 2034 4750 
Q 2819 4750 3233 4129 
Q 3647 3509 3647 2328 
Q 3647 1150 3233 529 
Q 2819 -91 2034 -91 
Q 1250 -91 836 529 
Q 422 1150 422 2328 
Q 422 3509 836 4129 
Q 1250 4750 2034 4750 
z
" transform="scale(0.015625)"/>
       </defs>
       <use xlink:href="#DejaVuSans-30"/>
      </g>
     </g>
    </g>
    <g id="xtick_2">
     <g id="line2d_2">
      <g>
       <use xlink:href="#ma5bd85925c" x="275.353798" y="403.76" style="stroke: #000000; stroke-width: 0.8"/>
      </g>
     </g>
     <g id="text_2">
      <!-- 100 -->
      <g transform="translate(252.448798 428.99625)scale(0.24 -0.24)">
       <defs>
        <path id="DejaVuSans-31" d="M 794 531 
L 1825 531 
L 1825 4091 
L 703 3866 
L 703 4441 
L 1819 4666 
L 2450 4666 
L 2450 531 
L 3481 531 
L 3481 0 
L 794 0 
L 794 531 
z
" transform="scale(0.015625)"/>
       </defs>
       <use xlink:href="#DejaVuSans-31"/>
       <use xlink:href="#DejaVuSans-30" x="63.623047"/>
       <use xlink:href="#DejaVuSans-30" x="127.246094"/>
      </g>
     </g>
    </g>
    <g id="xtick_3">
     <g id="line2d_3">
      <g>
       <use xlink:href="#ma5bd85925c" x="338.706963" y="403.76" style="stroke: #000000; stroke-width: 0.8"/>
      </g>
     </g>
     <g id="text_3">
      <!-- 200 -->
      <g transform="translate(315.801963 428.99625)scale(0.24 -0.24)">
       <defs>
        <path id="DejaVuSans-32" d="M 1228 531 
L 3431 531 
L 3431 0 
L 469 0 
L 469 531 
Q 828 903 1448 1529 
Q 2069 2156 2228 2338 
Q 2531 2678 2651 2914 
Q 2772 3150 2772 3378 
Q 2772 3750 2511 3984 
Q 2250 4219 1831 4219 
Q 1534 4219 1204 4116 
Q 875 4013 500 3803 
L 500 4441 
Q 881 4594 1212 4672 
Q 1544 4750 1819 4750 
Q 2544 4750 2975 4387 
Q 3406 4025 3406 3419 
Q 3406 3131 3298 2873 
Q 3191 2616 2906 2266 
Q 2828 2175 2409 1742 
Q 1991 1309 1228 531 
z
" transform="scale(0.015625)"/>
       </defs>
       <use xlink:href="#DejaVuSans-32"/>
       <use xlink:href="#DejaVuSans-30" x="63.623047"/>
       <use xlink:href="#DejaVuSans-30" x="127.246094"/>
      </g>
     </g>
    </g>
    <g id="xtick_4">
     <g id="line2d_4">
      <g>
       <use xlink:href="#ma5bd85925c" x="402.060128" y="403.76" style="stroke: #000000; stroke-width: 0.8"/>
      </g>
     </g>
     <g id="text_4">
      <!-- 300 -->
      <g transform="translate(379.155128 428.99625)scale(0.24 -0.24)">
       <defs>
        <path id="DejaVuSans-33" d="M 2597 2516 
Q 3050 2419 3304 2112 
Q 3559 1806 3559 1356 
Q 3559 666 3084 287 
Q 2609 -91 1734 -91 
Q 1441 -91 1130 -33 
Q 819 25 488 141 
L 488 750 
Q 750 597 1062 519 
Q 1375 441 1716 441 
Q 2309 441 2620 675 
Q 2931 909 2931 1356 
Q 2931 1769 2642 2001 
Q 2353 2234 1838 2234 
L 1294 2234 
L 1294 2753 
L 1863 2753 
Q 2328 2753 2575 2939 
Q 2822 3125 2822 3475 
Q 2822 3834 2567 4026 
Q 2313 4219 1838 4219 
Q 1578 4219 1281 4162 
Q 984 4106 628 3988 
L 628 4550 
Q 988 4650 1302 4700 
Q 1616 4750 1894 4750 
Q 2613 4750 3031 4423 
Q 3450 4097 3450 3541 
Q 3450 3153 3228 2886 
Q 3006 2619 2597 2516 
z
" transform="scale(0.015625)"/>
       </defs>
       <use xlink:href="#DejaVuSans-33"/>
       <use xlink:href="#DejaVuSans-30" x="63.623047"/>
       <use xlink:href="#DejaVuSans-30" x="127.246094"/>
      </g>
     </g>
    </g>
    <g id="xtick_5">
     <g id="line2d_5">
      <g>
       <use xlink:href="#ma5bd85925c" x="465.413293" y="403.76" style="stroke: #000000; stroke-width: 0.8"/>
      </g>
     </g>
     <g id="text_5">
      <!-- 400 -->
      <g transform="translate(442.508293 428.99625)scale(0.24 -0.24)">
       <defs>
        <path id="DejaVuSans-34" d="M 2419 4116 
L 825 1625 
L 2419 1625 
L 2419 4116 
z
M 2253 4666 
L 3047 4666 
L 3047 1625 
L 3713 1625 
L 3713 1100 
L 3047 1100 
L 3047 0 
L 2419 0 
L 2419 1100 
L 313 1100 
L 313 1709 
L 2253 4666 
z
" transform="scale(0.015625)"/>
       </defs>
       <use xlink:href="#DejaVuSans-34"/>
       <use xlink:href="#DejaVuSans-30" x="63.623047"/>
       <use xlink:href="#DejaVuSans-30" x="127.246094"/>
      </g>
     </g>
    </g>
   </g>
   <g id="matplotlib.axis_2">
    <g id="ytick_1">
     <g id="line2d_6">
      <defs>
       <path id="m336a44a4a1" d="M 0 0 
L -3.5 0 
" style="stroke: #000000; stroke-width: 0.8"/>
      </defs>
      <g>
       <use xlink:href="#m336a44a4a1" x="199.33" y="366.614161" style="stroke: #000000; stroke-width: 0.8"/>
      </g>
     </g>
     <g id="text_6">
      <!-- 0.0 -->
      <g transform="translate(154.1625 375.732286)scale(0.24 -0.24)">
       <defs>
        <path id="DejaVuSans-2e" d="M 684 794 
L 1344 794 
L 1344 0 
L 684 0 
L 684 794 
z
" transform="scale(0.015625)"/>
       </defs>
       <use xlink:href="#DejaVuSans-30"/>
       <use xlink:href="#DejaVuSans-2e" x="63.623047"/>
       <use xlink:href="#DejaVuSans-30" x="95.410156"/>
      </g>
     </g>
    </g>
    <g id="ytick_2">
     <g id="line2d_7">
      <g>
       <use xlink:href="#m336a44a4a1" x="199.33" y="304.469744" style="stroke: #000000; stroke-width: 0.8"/>
      </g>
     </g>
     <g id="text_7">
      <!-- 0.5 -->
      <g transform="translate(154.1625 313.587869)scale(0.24 -0.24)">
       <defs>
        <path id="DejaVuSans-35" d="M 691 4666 
L 3169 4666 
L 3169 4134 
L 1269 4134 
L 1269 2991 
Q 1406 3038 1543 3061 
Q 1681 3084 1819 3084 
Q 2600 3084 3056 2656 
Q 3513 2228 3513 1497 
Q 3513 744 3044 326 
Q 2575 -91 1722 -91 
Q 1428 -91 1123 -41 
Q 819 9 494 109 
L 494 744 
Q 775 591 1075 516 
Q 1375 441 1709 441 
Q 2250 441 2565 725 
Q 2881 1009 2881 1497 
Q 2881 1984 2565 2268 
Q 2250 2553 1709 2553 
Q 1456 2553 1204 2497 
Q 953 2441 691 2322 
L 691 4666 
z
" transform="scale(0.015625)"/>
       </defs>
       <use xlink:href="#DejaVuSans-30"/>
       <use xlink:href="#DejaVuSans-2e" x="63.623047"/>
       <use xlink:href="#DejaVuSans-35" x="95.410156"/>
      </g>
     </g>
    </g>
    <g id="ytick_3">
     <g id="line2d_8">
      <g>
       <use xlink:href="#m336a44a4a1" x="199.33" y="242.325328" style="stroke: #000000; stroke-width: 0.8"/>
      </g>
     </g>
     <g id="text_8">
      <!-- 1.0 -->
      <g transform="translate(154.1625 251.443453)scale(0.24 -0.24)">
       <use xlink:href="#DejaVuSans-31"/>
       <use xlink:href="#DejaVuSans-2e" x="63.623047"/>
       <use xlink:href="#DejaVuSans-30" x="95.410156"/>
      </g>
     </g>
    </g>
    <g id="ytick_4">
     <g id="line2d_9">
      <g>
       <use xlink:href="#m336a44a4a1" x="199.33" y="180.180911" style="stroke: #000000; stroke-width: 0.8"/>
      </g>
     </g>
     <g id="text_9">
      <!-- 1.5 -->
      <g transform="translate(154.1625 189.299036)scale(0.24 -0.24)">
       <use xlink:href="#DejaVuSans-31"/>
       <use xlink:href="#DejaVuSans-2e" x="63.623047"/>
       <use xlink:href="#DejaVuSans-35" x="95.410156"/>
      </g>
     </g>
    </g>
    <g id="ytick_5">
     <g id="line2d_10">
      <g>
       <use xlink:href="#m336a44a4a1" x="199.33" y="118.036495" style="stroke: #000000; stroke-width: 0.8"/>
      </g>
     </g>
     <g id="text_10">
      <!-- 2.0 -->
      <g transform="translate(154.1625 127.15462)scale(0.24 -0.24)">
       <use xlink:href="#DejaVuSans-32"/>
       <use xlink:href="#DejaVuSans-2e" x="63.623047"/>
       <use xlink:href="#DejaVuSans-30" x="95.410156"/>
      </g>
     </g>
    </g>
   </g>
   <g id="line2d_11">
    <path d="M 212.000633 135.026127 
L 213.416346 143.516019 
L 214.832059 151.132065 
L 216.247773 157.912028 
L 217.663486 163.893673 
L 219.079199 169.114764 
L 220.494912 173.613065 
L 221.910625 177.426341 
L 223.326338 180.592355 
L 224.742052 183.148872 
L 226.157765 185.133656 
L 227.573478 186.58447 
L 228.989191 187.53908 
L 230.404904 188.03525 
L 231.820618 188.110743 
L 233.236331 187.803323 
L 234.652044 187.150756 
L 236.067757 186.190804 
L 237.48347 184.961233 
L 238.899183 183.499806 
L 241.73061 180.032443 
L 244.562036 176.090827 
L 250.224889 167.993291 
L 253.056315 164.441598 
L 254.472028 162.922195 
L 255.887742 161.624106 
L 257.303455 160.585096 
L 258.719168 159.842929 
L 260.134881 159.435368 
L 261.550594 159.400179 
L 262.966308 159.775125 
L 264.382021 160.597971 
L 265.797734 161.90648 
L 267.213447 163.738417 
L 268.62916 166.131546 
L 270.044873 169.123631 
L 271.460587 172.752436 
L 272.8763 177.055726 
L 274.292013 182.071265 
L 275.707726 187.836506 
L 277.123439 194.351419 
L 278.539153 201.543166 
L 281.370579 217.632361 
L 284.202005 235.454485 
L 288.449145 264.015893 
L 294.111998 302.100016 
L 296.943424 319.681422 
L 299.77485 335.422915 
L 301.190563 342.400692 
L 302.606277 348.674888 
L 304.02199 354.164302 
L 305.437703 358.787732 
L 306.853416 362.463979 
L 308.269129 365.129286 
L 309.684843 366.821765 
L 311.100556 367.616403 
L 312.516269 367.588235 
L 313.931982 366.8123 
L 315.347695 365.363632 
L 316.763408 363.317268 
L 318.179122 360.748245 
L 319.594835 357.7316 
L 321.010548 354.342369 
L 323.841974 346.746294 
L 330.92054 326.488403 
L 333.751967 319.453931 
L 335.16768 316.465846 
L 336.583393 313.930575 
L 337.999106 311.923156 
L 339.414819 310.516163 
L 340.830533 309.725529 
L 342.246246 309.510548 
L 343.661959 309.82805 
L 345.077672 310.634867 
L 346.493385 311.887829 
L 347.909098 313.543767 
L 349.324812 315.559511 
L 350.740525 317.891894 
L 353.571951 323.333895 
L 356.403378 329.524417 
L 364.897657 349.133574 
L 367.729083 354.864645 
L 369.144796 357.384923 
L 370.560509 359.61749 
L 371.976223 361.533588 
L 373.391936 363.144215 
L 374.807649 364.467178 
L 376.223362 365.520284 
L 377.639075 366.321341 
L 379.054789 366.888156 
L 380.470502 367.238535 
L 381.886215 367.390286 
L 383.301928 367.361216 
L 384.717641 367.169132 
L 386.133354 366.831841 
L 388.964781 365.792865 
L 391.796207 364.386746 
L 396.043347 361.900799 
L 400.290486 359.390098 
L 403.121913 357.938546 
L 405.953339 356.764675 
L 408.784765 355.855263 
L 411.616192 355.190484 
L 414.447618 354.750512 
L 417.279044 354.515522 
L 420.110471 354.465689 
L 422.941897 354.581186 
L 427.189037 355.021058 
L 431.436176 355.721405 
L 437.099029 356.944736 
L 447.009021 359.436535 
L 454.087587 361.093363 
L 458.334727 361.889557 
L 462.581866 362.455544 
L 465.413293 362.671932 
L 465.413293 362.671932 
" clip-path="url(#p05d61eb8ce)" style="fill: none; stroke-dasharray: 7.4,3.2; stroke-dashoffset: 0; stroke: #ff0000; stroke-width: 2"/>
   </g>
   <g id="line2d_12">
    <path d="M 212.000633 135.026127 
L 214.832059 143.037523 
L 217.663486 149.976741 
L 220.494912 155.922863 
L 223.326338 160.954967 
L 226.157765 165.152134 
L 228.989191 168.593444 
L 231.820618 171.357977 
L 234.652044 173.524813 
L 237.48347 175.173032 
L 240.314897 176.381714 
L 243.146323 177.229939 
L 245.977749 177.796787 
L 250.224889 178.292465 
L 258.719168 178.985897 
L 261.550594 179.418728 
L 264.382021 180.084201 
L 267.213447 181.061398 
L 270.044873 182.429399 
L 272.8763 184.267282 
L 274.292013 185.387143 
L 277.123439 188.068302 
L 279.954866 191.264019 
L 282.786292 194.814047 
L 292.696284 207.685192 
L 295.527711 210.82034 
L 296.943424 212.196048 
L 298.359137 213.416785 
L 299.77485 214.462253 
L 301.190563 215.312158 
L 302.606277 215.946204 
L 304.02199 216.344095 
L 305.437703 216.485534 
L 306.853416 216.350227 
L 308.269129 215.923394 
L 309.684843 215.22247 
L 311.100556 214.276552 
L 312.516269 213.11475 
L 313.931982 211.766178 
L 316.763408 208.625168 
L 319.594835 205.086419 
L 326.673401 196.027808 
L 329.504827 192.931019 
L 330.92054 191.611927 
L 332.336253 190.48452 
L 333.751967 189.577909 
L 335.16768 188.921205 
L 336.583393 188.543522 
L 337.999106 188.473971 
L 339.414819 188.74044 
L 340.830533 189.342659 
L 342.246246 190.252198 
L 343.661959 191.439408 
L 345.077672 192.874634 
L 346.493385 194.528225 
L 349.324812 198.371893 
L 352.156238 202.733194 
L 362.06623 218.649272 
L 364.897657 222.404349 
L 366.31337 224.001564 
L 367.729083 225.37236 
L 369.144796 226.487085 
L 370.560509 227.316106 
L 371.976223 227.843267 
L 373.391936 228.08965 
L 374.807649 228.082713 
L 376.223362 227.849915 
L 377.639075 227.418713 
L 379.054789 226.816567 
L 381.886215 225.209273 
L 384.717641 223.2477 
L 390.380494 219.140384 
L 393.21192 217.433974 
L 394.627634 216.763685 
L 396.043347 216.251952 
L 397.45906 215.926233 
L 398.874773 215.813985 
L 400.290486 215.942668 
L 401.706199 216.339739 
L 403.121913 217.029319 
L 404.537626 218.006476 
L 405.953339 219.251318 
L 407.369052 220.74383 
L 408.784765 222.463997 
L 411.616192 226.507232 
L 414.447618 231.220903 
L 417.279044 236.444888 
L 421.526184 244.887438 
L 428.60475 259.241533 
L 431.436176 264.615262 
L 434.267603 269.538575 
L 437.099029 273.851349 
L 438.514742 275.728747 
L 439.930455 277.393464 
L 441.346169 278.825486 
L 442.761882 280.004797 
L 444.177595 280.911383 
L 445.593308 281.525227 
L 447.009021 281.826316 
L 448.424734 281.794632 
L 449.840448 281.410163 
L 451.256161 280.652891 
L 452.671874 279.502802 
L 454.087587 277.939881 
L 455.5033 275.944112 
L 456.919014 273.495481 
L 458.334727 270.573971 
L 459.75044 267.159569 
L 461.166153 263.232258 
L 462.581866 258.772023 
L 463.997579 253.75885 
L 465.413293 248.172723 
L 465.413293 248.172723 
" clip-path="url(#p05d61eb8ce)" style="fill: none; stroke-dasharray: 7.4,3.2; stroke-dashoffset: 0; stroke: #808080; stroke-opacity: 0.5; stroke-width: 2"/>
   </g>
   <g id="patch_3">
    <path d="M 199.33 403.76 
L 199.33 109.536 
" style="fill: none; stroke: #000000; stroke-width: 2; stroke-linejoin: miter; stroke-linecap: square"/>
   </g>
   <g id="patch_4">
    <path d="M 199.33 403.76 
L 478.083926 403.76 
" style="fill: none; stroke: #000000; stroke-width: 2; stroke-linejoin: miter; stroke-linecap: square"/>
   </g>
   <g id="text_11">
    <!-- $N_{steps} =$ 400,  -->
    <g transform="translate(274.581963 80.321562)scale(0.19 -0.19)">
     <defs>
      <path id="DejaVuSans-Oblique-4e" d="M 1081 4666 
L 1931 4666 
L 3219 666 
L 4000 4666 
L 4616 4666 
L 3706 0 
L 2853 0 
L 1569 4025 
L 788 0 
L 172 0 
L 1081 4666 
z
" transform="scale(0.015625)"/>
      <path id="DejaVuSans-Oblique-73" d="M 3200 3397 
L 3091 2853 
Q 2863 2978 2609 3040 
Q 2356 3103 2088 3103 
Q 1634 3103 1373 2948 
Q 1113 2794 1113 2528 
Q 1113 2219 1719 2053 
Q 1766 2041 1788 2034 
L 1972 1978 
Q 2547 1819 2739 1644 
Q 2931 1469 2931 1166 
Q 2931 609 2489 259 
Q 2047 -91 1331 -91 
Q 1053 -91 747 -37 
Q 441 16 72 128 
L 184 722 
Q 500 559 806 475 
Q 1113 391 1394 391 
Q 1816 391 2080 572 
Q 2344 753 2344 1031 
Q 2344 1331 1650 1516 
L 1591 1531 
L 1394 1581 
Q 956 1697 753 1886 
Q 550 2075 550 2369 
Q 550 2928 970 3256 
Q 1391 3584 2113 3584 
Q 2397 3584 2667 3537 
Q 2938 3491 3200 3397 
z
" transform="scale(0.015625)"/>
      <path id="DejaVuSans-Oblique-74" d="M 2706 3500 
L 2619 3053 
L 1472 3053 
L 1100 1153 
Q 1081 1047 1072 975 
Q 1063 903 1063 863 
Q 1063 663 1183 572 
Q 1303 481 1569 481 
L 2150 481 
L 2053 0 
L 1503 0 
Q 991 0 739 200 
Q 488 400 488 806 
Q 488 878 497 964 
Q 506 1050 525 1153 
L 897 3053 
L 409 3053 
L 500 3500 
L 978 3500 
L 1172 4494 
L 1747 4494 
L 1556 3500 
L 2706 3500 
z
" transform="scale(0.015625)"/>
      <path id="DejaVuSans-Oblique-65" d="M 3078 2063 
Q 3088 2113 3092 2166 
Q 3097 2219 3097 2272 
Q 3097 2653 2873 2875 
Q 2650 3097 2266 3097 
Q 1838 3097 1509 2826 
Q 1181 2556 1013 2059 
L 3078 2063 
z
M 3578 1613 
L 903 1613 
Q 884 1494 878 1425 
Q 872 1356 872 1306 
Q 872 872 1139 634 
Q 1406 397 1894 397 
Q 2269 397 2603 481 
Q 2938 566 3225 728 
L 3116 159 
Q 2806 34 2476 -28 
Q 2147 -91 1806 -91 
Q 1078 -91 686 257 
Q 294 606 294 1247 
Q 294 1794 489 2264 
Q 684 2734 1063 3103 
Q 1306 3334 1642 3459 
Q 1978 3584 2356 3584 
Q 2950 3584 3301 3228 
Q 3653 2872 3653 2272 
Q 3653 2128 3634 1964 
Q 3616 1800 3578 1613 
z
" transform="scale(0.015625)"/>
      <path id="DejaVuSans-Oblique-70" d="M 3175 2156 
Q 3175 2616 2975 2859 
Q 2775 3103 2400 3103 
Q 2144 3103 1911 2972 
Q 1678 2841 1497 2591 
Q 1319 2344 1212 1994 
Q 1106 1644 1106 1300 
Q 1106 863 1306 627 
Q 1506 391 1875 391 
Q 2147 391 2380 519 
Q 2613 647 2778 891 
Q 2956 1147 3065 1494 
Q 3175 1841 3175 2156 
z
M 1394 2969 
Q 1625 3272 1939 3428 
Q 2253 3584 2638 3584 
Q 3175 3584 3472 3232 
Q 3769 2881 3769 2247 
Q 3769 1728 3584 1258 
Q 3400 788 3053 416 
Q 2822 169 2531 39 
Q 2241 -91 1919 -91 
Q 1547 -91 1294 64 
Q 1041 219 916 525 
L 556 -1331 
L -19 -1331 
L 922 3500 
L 1497 3500 
L 1394 2969 
z
" transform="scale(0.015625)"/>
      <path id="DejaVuSans-3d" d="M 678 2906 
L 4684 2906 
L 4684 2381 
L 678 2381 
L 678 2906 
z
M 678 1631 
L 4684 1631 
L 4684 1100 
L 678 1100 
L 678 1631 
z
" transform="scale(0.015625)"/>
      <path id="DejaVuSans-20" transform="scale(0.015625)"/>
      <path id="DejaVuSans-2c" d="M 750 794 
L 1409 794 
L 1409 256 
L 897 -744 
L 494 -744 
L 750 256 
L 750 794 
z
" transform="scale(0.015625)"/>
     </defs>
     <use xlink:href="#DejaVuSans-Oblique-4e" transform="translate(0 0.78125)"/>
     <use xlink:href="#DejaVuSans-Oblique-73" transform="translate(74.804688 -15.625)scale(0.7)"/>
     <use xlink:href="#DejaVuSans-Oblique-74" transform="translate(111.274414 -15.625)scale(0.7)"/>
     <use xlink:href="#DejaVuSans-Oblique-65" transform="translate(138.720703 -15.625)scale(0.7)"/>
     <use xlink:href="#DejaVuSans-Oblique-70" transform="translate(181.787109 -15.625)scale(0.7)"/>
     <use xlink:href="#DejaVuSans-Oblique-73" transform="translate(226.220703 -15.625)scale(0.7)"/>
     <use xlink:href="#DejaVuSans-3d" transform="translate(284.907227 0.78125)"/>
     <use xlink:href="#DejaVuSans-20" transform="translate(388.178711 0.78125)"/>
     <use xlink:href="#DejaVuSans-34" transform="translate(419.96582 0.78125)"/>
     <use xlink:href="#DejaVuSans-30" transform="translate(483.588867 0.78125)"/>
     <use xlink:href="#DejaVuSans-30" transform="translate(547.211914 0.78125)"/>
     <use xlink:href="#DejaVuSans-2c" transform="translate(610.834961 0.78125)"/>
     <use xlink:href="#DejaVuSans-20" transform="translate(642.62207 0.78125)"/>
    </g>
    <!--  Human queried every 100 steps -->
    <g transform="translate(182.558135 103.536)scale(0.19 -0.19)">
     <defs>
      <path id="DejaVuSans-48" d="M 628 4666 
L 1259 4666 
L 1259 2753 
L 3553 2753 
L 3553 4666 
L 4184 4666 
L 4184 0 
L 3553 0 
L 3553 2222 
L 1259 2222 
L 1259 0 
L 628 0 
L 628 4666 
z
" transform="scale(0.015625)"/>
      <path id="DejaVuSans-75" d="M 544 1381 
L 544 3500 
L 1119 3500 
L 1119 1403 
Q 1119 906 1312 657 
Q 1506 409 1894 409 
Q 2359 409 2629 706 
Q 2900 1003 2900 1516 
L 2900 3500 
L 3475 3500 
L 3475 0 
L 2900 0 
L 2900 538 
Q 2691 219 2414 64 
Q 2138 -91 1772 -91 
Q 1169 -91 856 284 
Q 544 659 544 1381 
z
M 1991 3584 
L 1991 3584 
z
" transform="scale(0.015625)"/>
      <path id="DejaVuSans-6d" d="M 3328 2828 
Q 3544 3216 3844 3400 
Q 4144 3584 4550 3584 
Q 5097 3584 5394 3201 
Q 5691 2819 5691 2113 
L 5691 0 
L 5113 0 
L 5113 2094 
Q 5113 2597 4934 2840 
Q 4756 3084 4391 3084 
Q 3944 3084 3684 2787 
Q 3425 2491 3425 1978 
L 3425 0 
L 2847 0 
L 2847 2094 
Q 2847 2600 2669 2842 
Q 2491 3084 2119 3084 
Q 1678 3084 1418 2786 
Q 1159 2488 1159 1978 
L 1159 0 
L 581 0 
L 581 3500 
L 1159 3500 
L 1159 2956 
Q 1356 3278 1631 3431 
Q 1906 3584 2284 3584 
Q 2666 3584 2933 3390 
Q 3200 3197 3328 2828 
z
" transform="scale(0.015625)"/>
      <path id="DejaVuSans-61" d="M 2194 1759 
Q 1497 1759 1228 1600 
Q 959 1441 959 1056 
Q 959 750 1161 570 
Q 1363 391 1709 391 
Q 2188 391 2477 730 
Q 2766 1069 2766 1631 
L 2766 1759 
L 2194 1759 
z
M 3341 1997 
L 3341 0 
L 2766 0 
L 2766 531 
Q 2569 213 2275 61 
Q 1981 -91 1556 -91 
Q 1019 -91 701 211 
Q 384 513 384 1019 
Q 384 1609 779 1909 
Q 1175 2209 1959 2209 
L 2766 2209 
L 2766 2266 
Q 2766 2663 2505 2880 
Q 2244 3097 1772 3097 
Q 1472 3097 1187 3025 
Q 903 2953 641 2809 
L 641 3341 
Q 956 3463 1253 3523 
Q 1550 3584 1831 3584 
Q 2591 3584 2966 3190 
Q 3341 2797 3341 1997 
z
" transform="scale(0.015625)"/>
      <path id="DejaVuSans-6e" d="M 3513 2113 
L 3513 0 
L 2938 0 
L 2938 2094 
Q 2938 2591 2744 2837 
Q 2550 3084 2163 3084 
Q 1697 3084 1428 2787 
Q 1159 2491 1159 1978 
L 1159 0 
L 581 0 
L 581 3500 
L 1159 3500 
L 1159 2956 
Q 1366 3272 1645 3428 
Q 1925 3584 2291 3584 
Q 2894 3584 3203 3211 
Q 3513 2838 3513 2113 
z
" transform="scale(0.015625)"/>
      <path id="DejaVuSans-71" d="M 947 1747 
Q 947 1113 1208 752 
Q 1469 391 1925 391 
Q 2381 391 2643 752 
Q 2906 1113 2906 1747 
Q 2906 2381 2643 2742 
Q 2381 3103 1925 3103 
Q 1469 3103 1208 2742 
Q 947 2381 947 1747 
z
M 2906 525 
Q 2725 213 2448 61 
Q 2172 -91 1784 -91 
Q 1150 -91 751 415 
Q 353 922 353 1747 
Q 353 2572 751 3078 
Q 1150 3584 1784 3584 
Q 2172 3584 2448 3432 
Q 2725 3281 2906 2969 
L 2906 3500 
L 3481 3500 
L 3481 -1331 
L 2906 -1331 
L 2906 525 
z
" transform="scale(0.015625)"/>
      <path id="DejaVuSans-65" d="M 3597 1894 
L 3597 1613 
L 953 1613 
Q 991 1019 1311 708 
Q 1631 397 2203 397 
Q 2534 397 2845 478 
Q 3156 559 3463 722 
L 3463 178 
Q 3153 47 2828 -22 
Q 2503 -91 2169 -91 
Q 1331 -91 842 396 
Q 353 884 353 1716 
Q 353 2575 817 3079 
Q 1281 3584 2069 3584 
Q 2775 3584 3186 3129 
Q 3597 2675 3597 1894 
z
M 3022 2063 
Q 3016 2534 2758 2815 
Q 2500 3097 2075 3097 
Q 1594 3097 1305 2825 
Q 1016 2553 972 2059 
L 3022 2063 
z
" transform="scale(0.015625)"/>
      <path id="DejaVuSans-72" d="M 2631 2963 
Q 2534 3019 2420 3045 
Q 2306 3072 2169 3072 
Q 1681 3072 1420 2755 
Q 1159 2438 1159 1844 
L 1159 0 
L 581 0 
L 581 3500 
L 1159 3500 
L 1159 2956 
Q 1341 3275 1631 3429 
Q 1922 3584 2338 3584 
Q 2397 3584 2469 3576 
Q 2541 3569 2628 3553 
L 2631 2963 
z
" transform="scale(0.015625)"/>
      <path id="DejaVuSans-69" d="M 603 3500 
L 1178 3500 
L 1178 0 
L 603 0 
L 603 3500 
z
M 603 4863 
L 1178 4863 
L 1178 4134 
L 603 4134 
L 603 4863 
z
" transform="scale(0.015625)"/>
      <path id="DejaVuSans-64" d="M 2906 2969 
L 2906 4863 
L 3481 4863 
L 3481 0 
L 2906 0 
L 2906 525 
Q 2725 213 2448 61 
Q 2172 -91 1784 -91 
Q 1150 -91 751 415 
Q 353 922 353 1747 
Q 353 2572 751 3078 
Q 1150 3584 1784 3584 
Q 2172 3584 2448 3432 
Q 2725 3281 2906 2969 
z
M 947 1747 
Q 947 1113 1208 752 
Q 1469 391 1925 391 
Q 2381 391 2643 752 
Q 2906 1113 2906 1747 
Q 2906 2381 2643 2742 
Q 2381 3103 1925 3103 
Q 1469 3103 1208 2742 
Q 947 2381 947 1747 
z
" transform="scale(0.015625)"/>
      <path id="DejaVuSans-76" d="M 191 3500 
L 800 3500 
L 1894 563 
L 2988 3500 
L 3597 3500 
L 2284 0 
L 1503 0 
L 191 3500 
z
" transform="scale(0.015625)"/>
      <path id="DejaVuSans-79" d="M 2059 -325 
Q 1816 -950 1584 -1140 
Q 1353 -1331 966 -1331 
L 506 -1331 
L 506 -850 
L 844 -850 
Q 1081 -850 1212 -737 
Q 1344 -625 1503 -206 
L 1606 56 
L 191 3500 
L 800 3500 
L 1894 763 
L 2988 3500 
L 3597 3500 
L 2059 -325 
z
" transform="scale(0.015625)"/>
      <path id="DejaVuSans-73" d="M 2834 3397 
L 2834 2853 
Q 2591 2978 2328 3040 
Q 2066 3103 1784 3103 
Q 1356 3103 1142 2972 
Q 928 2841 928 2578 
Q 928 2378 1081 2264 
Q 1234 2150 1697 2047 
L 1894 2003 
Q 2506 1872 2764 1633 
Q 3022 1394 3022 966 
Q 3022 478 2636 193 
Q 2250 -91 1575 -91 
Q 1294 -91 989 -36 
Q 684 19 347 128 
L 347 722 
Q 666 556 975 473 
Q 1284 391 1588 391 
Q 1994 391 2212 530 
Q 2431 669 2431 922 
Q 2431 1156 2273 1281 
Q 2116 1406 1581 1522 
L 1381 1569 
Q 847 1681 609 1914 
Q 372 2147 372 2553 
Q 372 3047 722 3315 
Q 1072 3584 1716 3584 
Q 2034 3584 2315 3537 
Q 2597 3491 2834 3397 
z
" transform="scale(0.015625)"/>
      <path id="DejaVuSans-74" d="M 1172 4494 
L 1172 3500 
L 2356 3500 
L 2356 3053 
L 1172 3053 
L 1172 1153 
Q 1172 725 1289 603 
Q 1406 481 1766 481 
L 2356 481 
L 2356 0 
L 1766 0 
Q 1100 0 847 248 
Q 594 497 594 1153 
L 594 3053 
L 172 3053 
L 172 3500 
L 594 3500 
L 594 4494 
L 1172 4494 
z
" transform="scale(0.015625)"/>
      <path id="DejaVuSans-70" d="M 1159 525 
L 1159 -1331 
L 581 -1331 
L 581 3500 
L 1159 3500 
L 1159 2969 
Q 1341 3281 1617 3432 
Q 1894 3584 2278 3584 
Q 2916 3584 3314 3078 
Q 3713 2572 3713 1747 
Q 3713 922 3314 415 
Q 2916 -91 2278 -91 
Q 1894 -91 1617 61 
Q 1341 213 1159 525 
z
M 3116 1747 
Q 3116 2381 2855 2742 
Q 2594 3103 2138 3103 
Q 1681 3103 1420 2742 
Q 1159 2381 1159 1747 
Q 1159 1113 1420 752 
Q 1681 391 2138 391 
Q 2594 391 2855 752 
Q 3116 1113 3116 1747 
z
" transform="scale(0.015625)"/>
     </defs>
     <use xlink:href="#DejaVuSans-20"/>
     <use xlink:href="#DejaVuSans-48" x="31.787109"/>
     <use xlink:href="#DejaVuSans-75" x="106.982422"/>
     <use xlink:href="#DejaVuSans-6d" x="170.361328"/>
     <use xlink:href="#DejaVuSans-61" x="267.773438"/>
     <use xlink:href="#DejaVuSans-6e" x="329.052734"/>
     <use xlink:href="#DejaVuSans-20" x="392.431641"/>
     <use xlink:href="#DejaVuSans-71" x="424.21875"/>
     <use xlink:href="#DejaVuSans-75" x="487.695312"/>
     <use xlink:href="#DejaVuSans-65" x="551.074219"/>
     <use xlink:href="#DejaVuSans-72" x="612.597656"/>
     <use xlink:href="#DejaVuSans-69" x="653.710938"/>
     <use xlink:href="#DejaVuSans-65" x="681.494141"/>
     <use xlink:href="#DejaVuSans-64" x="743.017578"/>
     <use xlink:href="#DejaVuSans-20" x="806.494141"/>
     <use xlink:href="#DejaVuSans-65" x="838.28125"/>
     <use xlink:href="#DejaVuSans-76" x="899.804688"/>
     <use xlink:href="#DejaVuSans-65" x="958.984375"/>
     <use xlink:href="#DejaVuSans-72" x="1020.507812"/>
     <use xlink:href="#DejaVuSans-79" x="1061.621094"/>
     <use xlink:href="#DejaVuSans-20" x="1120.800781"/>
     <use xlink:href="#DejaVuSans-31" x="1152.587891"/>
     <use xlink:href="#DejaVuSans-30" x="1216.210938"/>
     <use xlink:href="#DejaVuSans-30" x="1279.833984"/>
     <use xlink:href="#DejaVuSans-20" x="1343.457031"/>
     <use xlink:href="#DejaVuSans-73" x="1375.244141"/>
     <use xlink:href="#DejaVuSans-74" x="1427.34375"/>
     <use xlink:href="#DejaVuSans-65" x="1466.552734"/>
     <use xlink:href="#DejaVuSans-70" x="1528.076172"/>
     <use xlink:href="#DejaVuSans-73" x="1591.552734"/>
    </g>
   </g>
   <g id="legend_1">
    <g id="patch_5">
     <path d="M 390.963926 136.74975 
L 469.683926 136.74975 
Q 472.083926 136.74975 472.083926 134.34975 
L 472.083926 117.936 
Q 472.083926 115.536 469.683926 115.536 
L 390.963926 115.536 
Q 388.563926 115.536 388.563926 117.936 
L 388.563926 134.34975 
Q 388.563926 136.74975 390.963926 136.74975 
z
" style="fill: #ffffff; opacity: 0.8; stroke: #cccccc; stroke-linejoin: miter"/>
    </g>
    <g id="PathCollection_2">
     <g>
      <use xlink:href="#m9e1a8e5745" x="405.363926" y="126.304125" style="fill: #ff0000; fill-opacity: 0.5; stroke: #000000; stroke-opacity: 0.5"/>
     </g>
    </g>
    <g id="text_12">
     <!-- $T$ = 10 -->
     <g transform="translate(426.963926 129.454125)scale(0.12 -0.12)">
      <defs>
       <path id="DejaVuSans-Oblique-54" d="M 378 4666 
L 4325 4666 
L 4225 4134 
L 2559 4134 
L 1759 0 
L 1125 0 
L 1925 4134 
L 275 4134 
L 378 4666 
z
" transform="scale(0.015625)"/>
      </defs>
      <use xlink:href="#DejaVuSans-Oblique-54" transform="translate(0 0.78125)"/>
      <use xlink:href="#DejaVuSans-20" transform="translate(61.083984 0.78125)"/>
      <use xlink:href="#DejaVuSans-3d" transform="translate(92.871094 0.78125)"/>
      <use xlink:href="#DejaVuSans-20" transform="translate(176.660156 0.78125)"/>
      <use xlink:href="#DejaVuSans-31" transform="translate(208.447266 0.78125)"/>
      <use xlink:href="#DejaVuSans-30" transform="translate(272.070312 0.78125)"/>
     </g>
    </g>
   </g>
  </g>
  <g id="axes_2">
   <g id="patch_6">
    <path d="M 523.245 403.76 
L 801.998926 403.76 
L 801.998926 109.536 
L 523.245 109.536 
L 523.245 403.76 
z
" style="fill: none"/>
   </g>
   <g id="PolyCollection_3">
    <defs>
     <path id="m150870151e" d="M 535.915633 -348.681588 
L 535.915633 -324.448971 
L 537.331346 -316.326143 
L 538.747059 -308.999096 
L 540.162773 -304.002942 
L 541.578486 -298.532236 
L 542.994199 -293.683195 
L 544.409912 -289.425428 
L 545.825625 -285.728542 
L 547.241338 -282.562146 
L 548.657052 -279.895848 
L 550.072765 -277.699256 
L 551.488478 -275.941979 
L 552.904191 -274.593624 
L 554.319904 -273.623801 
L 555.735618 -273.002116 
L 557.151331 -272.698178 
L 558.567044 -272.681596 
L 559.982757 -272.921978 
L 561.39847 -273.388931 
L 562.814183 -274.052065 
L 564.229897 -274.880986 
L 565.64561 -275.845304 
L 567.061323 -276.914627 
L 568.477036 -278.058562 
L 569.892749 -279.246719 
L 571.308463 -280.448704 
L 572.724176 -281.634128 
L 574.139889 -282.772596 
L 575.555602 -283.833719 
L 576.971315 -284.787103 
L 578.387028 -285.602358 
L 579.802742 -286.249091 
L 581.218455 -286.69691 
L 582.634168 -286.915425 
L 584.049881 -286.874242 
L 585.465594 -286.54297 
L 586.881308 -285.891218 
L 588.297021 -284.888594 
L 589.712734 -283.504705 
L 591.128447 -281.70916 
L 592.54416 -279.471567 
L 593.959873 -276.761535 
L 595.375587 -273.548671 
L 596.7913 -269.802584 
L 598.207013 -265.492882 
L 599.622726 -260.589434 
L 601.038439 -255.093785 
L 602.454153 -249.068992 
L 603.869866 -242.585179 
L 605.285579 -235.712472 
L 606.701292 -228.520996 
L 608.117005 -221.080876 
L 609.532718 -213.462236 
L 610.948432 -205.735203 
L 612.364145 -197.969901 
L 613.779858 -190.236455 
L 615.195571 -182.60499 
L 616.611284 -175.145631 
L 618.026998 -167.928504 
L 619.442711 -161.023733 
L 620.858424 -154.501444 
L 622.274137 -148.431762 
L 623.68985 -142.884811 
L 625.105563 -137.930716 
L 626.521277 -133.639604 
L 627.93699 -130.081598 
L 629.352703 -127.326825 
L 630.768416 -125.445408 
L 632.184129 -124.491658 
L 633.599843 -124.427525 
L 635.015556 -125.181533 
L 636.431269 -126.682156 
L 637.846982 -128.85787 
L 639.262695 -131.637152 
L 640.678408 -134.948476 
L 642.094122 -138.720319 
L 643.509835 -142.881157 
L 644.925548 -147.359465 
L 646.341261 -152.083719 
L 647.756974 -156.982395 
L 649.172688 -161.983968 
L 650.588401 -167.016915 
L 652.004114 -172.009711 
L 653.419827 -176.890832 
L 654.83554 -181.588754 
L 656.251253 -186.031953 
L 657.666967 -190.148904 
L 659.08268 -193.868083 
L 660.498393 -197.117966 
L 661.914106 -199.827029 
L 663.329819 -201.926206 
L 664.745533 -203.402983 
L 666.161246 -204.301397 
L 667.576959 -204.667943 
L 668.992672 -204.549117 
L 670.408385 -203.991415 
L 671.824098 -203.041332 
L 673.239812 -201.745364 
L 674.655525 -200.150007 
L 676.071238 -198.301755 
L 677.486951 -196.247105 
L 678.902664 -194.032552 
L 680.318378 -191.704592 
L 681.734091 -189.309721 
L 683.149804 -186.894433 
L 684.565517 -184.505225 
L 685.98123 -182.188593 
L 687.396944 -179.991031 
L 688.812657 -177.959036 
L 690.22837 -176.139103 
L 691.644083 -174.577727 
L 693.059796 -173.321405 
L 694.475509 -172.416604 
L 695.891223 -171.890202 
L 697.306936 -171.714947 
L 698.722649 -171.854319 
L 700.138362 -172.271796 
L 701.554075 -172.930859 
L 702.969789 -173.794987 
L 704.385502 -174.82766 
L 705.801215 -175.992357 
L 707.216928 -177.252557 
L 708.632641 -178.571741 
L 710.048354 -179.913388 
L 711.464068 -181.240976 
L 712.879781 -182.517987 
L 714.295494 -183.707899 
L 715.711207 -184.774191 
L 717.12692 -185.680344 
L 718.542634 -186.389837 
L 719.958347 -186.86615 
L 721.37406 -187.072761 
L 722.789773 -186.973151 
L 724.205486 -186.530799 
L 725.621199 -185.709184 
L 727.036913 -184.476284 
L 728.452626 -182.839222 
L 729.868339 -180.825278 
L 731.284052 -178.461897 
L 732.699765 -175.776526 
L 734.115479 -172.796611 
L 735.531192 -169.549598 
L 736.946905 -166.062934 
L 738.362618 -162.364063 
L 739.778331 -158.480433 
L 741.194044 -154.439488 
L 742.609758 -150.268677 
L 744.025471 -145.995444 
L 745.441184 -141.647235 
L 746.856897 -137.251498 
L 748.27261 -132.835677 
L 749.688324 -128.427219 
L 751.104037 -124.05357 
L 752.51975 -119.742176 
L 753.935463 -115.520483 
L 755.351176 -111.415938 
L 756.766889 -107.455986 
L 758.182603 -103.668073 
L 759.598316 -100.079647 
L 761.014029 -96.718151 
L 762.429742 -93.611034 
L 763.845455 -90.78574 
L 765.261169 -88.269716 
L 766.676882 -86.090409 
L 768.092595 -84.275263 
L 769.508308 -82.851726 
L 770.924021 -81.847243 
L 772.339734 -81.28926 
L 773.755448 -81.205224 
L 775.171161 -81.622581 
L 776.586874 -82.568776 
L 778.002587 -84.071256 
L 779.4183 -86.157467 
L 780.834014 -88.854855 
L 782.249727 -92.190866 
L 783.66544 -96.192946 
L 785.081153 -100.888542 
L 786.496866 -106.305099 
L 787.912579 -112.470063 
L 789.328293 -119.410881 
L 789.328293 -141.355694 
L 789.328293 -141.355694 
L 787.912579 -135.25928 
L 786.496866 -129.830809 
L 785.081153 -125.046803 
L 783.66544 -120.883786 
L 782.249727 -117.318278 
L 780.834014 -114.326802 
L 779.4183 -111.885881 
L 778.002587 -109.972036 
L 776.586874 -108.56179 
L 775.171161 -107.631665 
L 773.755448 -107.158183 
L 772.339734 -107.117866 
L 770.924021 -107.487236 
L 769.508308 -108.242817 
L 768.092595 -109.361129 
L 766.676882 -110.818695 
L 765.261169 -112.592037 
L 763.845455 -114.657678 
L 762.429742 -116.992139 
L 761.014029 -119.571943 
L 759.598316 -122.373612 
L 758.182603 -125.373668 
L 756.766889 -128.548634 
L 755.351176 -131.875031 
L 753.935463 -135.329382 
L 752.51975 -138.888209 
L 751.104037 -142.528034 
L 749.688324 -146.225379 
L 748.27261 -149.956767 
L 746.856897 -153.698719 
L 745.441184 -157.427758 
L 744.025471 -161.120407 
L 742.609758 -164.753186 
L 741.194044 -168.302619 
L 739.778331 -171.745228 
L 738.362618 -175.057535 
L 736.946905 -178.216061 
L 735.531192 -181.19733 
L 734.115479 -183.977863 
L 732.699765 -186.534183 
L 731.284052 -188.842811 
L 729.868339 -190.880271 
L 728.452626 -192.623084 
L 727.036913 -194.047772 
L 725.621199 -195.131034 
L 724.205486 -195.870968 
L 722.789773 -196.307229 
L 721.37406 -196.484247 
L 719.958347 -196.446453 
L 718.542634 -196.238276 
L 717.12692 -195.904147 
L 715.711207 -195.488496 
L 714.295494 -195.035754 
L 712.879781 -194.59035 
L 711.464068 -194.196714 
L 710.048354 -193.899278 
L 708.632641 -193.742471 
L 707.216928 -193.770723 
L 705.801215 -194.028466 
L 704.385502 -194.560128 
L 702.969789 -195.41014 
L 701.554075 -196.622932 
L 700.138362 -198.242935 
L 698.722649 -200.314579 
L 697.306936 -202.882293 
L 695.891223 -205.990509 
L 694.475509 -209.683657 
L 693.059796 -213.991698 
L 691.644083 -218.860113 
L 690.22837 -224.203798 
L 688.812657 -229.93761 
L 687.396944 -235.976405 
L 685.98123 -242.23504 
L 684.565517 -248.628371 
L 683.149804 -255.071254 
L 681.734091 -261.478545 
L 680.318378 -267.7651 
L 678.902664 -273.845776 
L 677.486951 -279.635429 
L 676.071238 -285.048915 
L 674.655525 -290.001091 
L 673.239812 -294.406812 
L 671.824098 -298.180934 
L 670.408385 -301.238315 
L 668.992672 -303.49381 
L 667.576959 -304.862276 
L 666.161246 -305.258568 
L 664.745533 -304.597543 
L 663.329819 -302.794057 
L 661.914106 -299.767309 
L 660.498393 -295.536373 
L 659.08268 -290.2202 
L 657.666967 -283.942083 
L 656.251253 -276.825315 
L 654.83554 -268.993189 
L 653.419827 -260.568997 
L 652.004114 -251.676033 
L 650.588401 -242.43759 
L 649.172688 -232.97696 
L 647.756974 -223.417437 
L 646.341261 -213.882313 
L 644.925548 -204.494882 
L 643.509835 -195.378436 
L 642.094122 -186.656269 
L 640.678408 -178.451673 
L 639.262695 -170.887942 
L 637.846982 -164.088367 
L 636.431269 -158.176243 
L 635.015556 -153.274862 
L 633.599843 -149.507518 
L 632.184129 -146.997502 
L 630.768416 -145.868034 
L 629.352703 -146.188361 
L 627.93699 -147.878616 
L 626.521277 -150.8334 
L 625.105563 -154.947313 
L 623.68985 -160.114956 
L 622.274137 -166.230929 
L 620.858424 -173.189832 
L 619.442711 -180.886266 
L 618.026998 -189.214831 
L 616.611284 -198.070127 
L 615.195571 -207.346754 
L 613.779858 -216.939313 
L 612.364145 -226.742404 
L 610.948432 -236.650627 
L 609.532718 -246.558584 
L 608.117005 -256.360873 
L 606.701292 -265.952095 
L 605.285579 -275.226851 
L 603.869866 -284.07974 
L 602.454153 -292.405364 
L 601.038439 -300.098322 
L 599.622726 -307.053215 
L 598.207013 -313.175007 
L 596.7913 -318.458873 
L 595.375587 -322.946433 
L 593.959873 -326.679694 
L 592.54416 -329.70066 
L 591.128447 -332.051338 
L 589.712734 -333.773733 
L 588.297021 -334.90985 
L 586.881308 -335.501695 
L 585.465594 -335.591274 
L 584.049881 -335.220591 
L 582.634168 -334.431654 
L 581.218455 -333.266466 
L 579.802742 -331.767034 
L 578.387028 -329.975363 
L 576.971315 -327.933458 
L 575.555602 -325.683326 
L 574.139889 -323.266972 
L 572.724176 -320.726401 
L 571.308463 -318.103618 
L 569.892749 -315.44063 
L 568.477036 -312.779442 
L 567.061323 -310.162059 
L 565.64561 -307.630487 
L 564.229897 -305.226732 
L 562.814183 -302.992798 
L 561.39847 -300.970692 
L 559.982757 -299.202419 
L 558.567044 -297.729985 
L 557.151331 -296.595394 
L 555.735618 -295.840654 
L 554.319904 -295.507768 
L 552.904191 -295.638743 
L 551.488478 -296.275584 
L 550.072765 -297.460297 
L 548.657052 -299.234887 
L 547.241338 -301.64136 
L 545.825625 -304.721722 
L 544.409912 -308.517977 
L 542.994199 -313.072131 
L 541.578486 -318.426191 
L 540.162773 -324.622161 
L 538.747059 -332.828656 
L 537.331346 -340.312629 
L 535.915633 -348.681588 
z
" style="stroke: #800080; stroke-opacity: 0.1"/>
    </defs>
    <g clip-path="url(#pce081633d5)">
     <use xlink:href="#m150870151e" x="0" y="471.591406" style="fill: #800080; fill-opacity: 0.1; stroke: #800080; stroke-opacity: 0.1"/>
    </g>
   </g>
   <g id="PathCollection_3">
    <defs>
     <path id="mee75cdd3f8" d="M 0 -6.708204 
L -1.506086 -2.072949 
L -6.379881 -2.072949 
L -2.436898 0.791796 
L -3.942983 5.427051 
L -0 2.562306 
L 3.942983 5.427051 
L 2.436898 0.791796 
L 6.379881 -2.072949 
L 1.506086 -2.072949 
z
" style="stroke: #000000; stroke-opacity: 0.5"/>
    </defs>
    <g clip-path="url(#pce081633d5)">
     <use xlink:href="#mee75cdd3f8" x="592.54416" y="167.005292" style="fill: #800080; fill-opacity: 0.5; stroke: #000000; stroke-opacity: 0.5"/>
     <use xlink:href="#mee75cdd3f8" x="649.172688" y="274.110942" style="fill: #800080; fill-opacity: 0.5; stroke: #000000; stroke-opacity: 0.5"/>
     <use xlink:href="#mee75cdd3f8" x="705.801215" y="286.580995" style="fill: #800080; fill-opacity: 0.5; stroke: #000000; stroke-opacity: 0.5"/>
    </g>
   </g>
   <g id="PolyCollection_4">
    <defs>
     <path id="ma3939bb964" d="M 535.915633 -348.681588 
L 535.915633 -324.448971 
L 537.331346 -320.427374 
L 538.747059 -316.639104 
L 540.162773 -313.076202 
L 541.578486 -309.730711 
L 542.994199 -306.59467 
L 544.409912 -303.660123 
L 545.825625 -300.91911 
L 547.241338 -298.363674 
L 548.657052 -295.985856 
L 550.072765 -293.777697 
L 551.488478 -291.731239 
L 552.904191 -289.838524 
L 554.319904 -288.091593 
L 555.735618 -286.482488 
L 557.151331 -285.003251 
L 558.567044 -283.645922 
L 559.982757 -282.402544 
L 561.39847 -281.265159 
L 562.814183 -280.225807 
L 564.229897 -279.276531 
L 565.64561 -278.409372 
L 567.061323 -277.616372 
L 568.477036 -276.889572 
L 569.892749 -276.221014 
L 571.308463 -275.602739 
L 572.724176 -275.026789 
L 574.139889 -274.485206 
L 575.555602 -273.970032 
L 576.971315 -273.473307 
L 578.387028 -272.987074 
L 579.802742 -272.503373 
L 581.218455 -272.014248 
L 582.634168 -271.511739 
L 584.049881 -270.987887 
L 585.465594 -270.434735 
L 586.881308 -269.844324 
L 588.297021 -269.208696 
L 589.712734 -268.519892 
L 591.128447 -267.769954 
L 592.54416 -266.950924 
L 593.959873 -266.054843 
L 595.375587 -265.073752 
L 596.7913 -263.999693 
L 598.207013 -262.824709 
L 599.622726 -261.54091 
L 601.038439 -260.148953 
L 602.454153 -258.666086 
L 603.869866 -257.111461 
L 605.285579 -255.504233 
L 606.701292 -253.863557 
L 608.117005 -252.208585 
L 609.532718 -250.558472 
L 610.948432 -248.932372 
L 612.364145 -247.34944 
L 613.779858 -245.828828 
L 615.195571 -244.38969 
L 616.611284 -243.051182 
L 618.026998 -241.832456 
L 619.442711 -240.752667 
L 620.858424 -239.830969 
L 622.274137 -239.086515 
L 623.68985 -238.53846 
L 625.105563 -238.205958 
L 626.521277 -238.108162 
L 627.93699 -238.264226 
L 629.352703 -238.693305 
L 630.768416 -239.414553 
L 632.184129 -240.441166 
L 633.599843 -241.751557 
L 635.015556 -243.311546 
L 636.431269 -245.086938 
L 637.846982 -247.043537 
L 639.262695 -249.147147 
L 640.678408 -251.36357 
L 642.094122 -253.658612 
L 643.509835 -255.998075 
L 644.925548 -258.347764 
L 646.341261 -260.673483 
L 647.756974 -262.941036 
L 649.172688 -265.116225 
L 650.588401 -267.164856 
L 652.004114 -269.052732 
L 653.419827 -270.745657 
L 654.83554 -272.209434 
L 656.251253 -273.409868 
L 657.666967 -274.312763 
L 659.08268 -274.883922 
L 660.498393 -275.089149 
L 661.914106 -274.894247 
L 663.329819 -274.2664 
L 664.745533 -273.204486 
L 666.161246 -271.739083 
L 667.576959 -269.902144 
L 668.992672 -267.725626 
L 670.408385 -265.241483 
L 671.824098 -262.481671 
L 673.239812 -259.478144 
L 674.655525 -256.262857 
L 676.071238 -252.867765 
L 677.486951 -249.324823 
L 678.902664 -245.665987 
L 680.318378 -241.923212 
L 681.734091 -238.128451 
L 683.149804 -234.313661 
L 684.565517 -230.510796 
L 685.98123 -226.751812 
L 687.396944 -223.068663 
L 688.812657 -219.493304 
L 690.22837 -216.05769 
L 691.644083 -212.793777 
L 693.059796 -209.73352 
L 694.475509 -206.908858 
L 695.891223 -204.341192 
L 697.306936 -202.022799 
L 698.722649 -199.940972 
L 700.138362 -198.083002 
L 701.554075 -196.43618 
L 702.969789 -194.987798 
L 704.385502 -193.725147 
L 705.801215 -192.635518 
L 707.216928 -191.706203 
L 708.632641 -190.924494 
L 710.048354 -190.277681 
L 711.464068 -189.753057 
L 712.879781 -189.337913 
L 714.295494 -189.01954 
L 715.711207 -188.785229 
L 717.12692 -188.622273 
L 718.542634 -188.517962 
L 719.958347 -188.459587 
L 721.37406 -188.434442 
L 722.789773 -188.429816 
L 724.205486 -188.433001 
L 725.621199 -188.43129 
L 727.036913 -188.413012 
L 728.452626 -188.375548 
L 729.868339 -188.32094 
L 731.284052 -188.251265 
L 732.699765 -188.168602 
L 734.115479 -188.07503 
L 735.531192 -187.972629 
L 736.946905 -187.863475 
L 738.362618 -187.749649 
L 739.778331 -187.633229 
L 741.194044 -187.516294 
L 742.609758 -187.400923 
L 744.025471 -187.289193 
L 745.441184 -187.183185 
L 746.856897 -187.084976 
L 748.27261 -186.996646 
L 749.688324 -186.920273 
L 751.104037 -186.857936 
L 752.51975 -186.811714 
L 753.935463 -186.783686 
L 755.351176 -186.775929 
L 756.766889 -186.790524 
L 758.182603 -186.829548 
L 759.598316 -186.89508 
L 761.014029 -186.9892 
L 762.429742 -187.113986 
L 763.845455 -187.271517 
L 765.261169 -187.463871 
L 766.676882 -187.693127 
L 768.092595 -187.961364 
L 769.508308 -188.27066 
L 770.924021 -188.623096 
L 772.339734 -189.020748 
L 773.755448 -189.465696 
L 775.171161 -189.960019 
L 776.586874 -190.505795 
L 778.002587 -191.105103 
L 779.4183 -191.760022 
L 780.834014 -192.472631 
L 782.249727 -193.245008 
L 783.66544 -194.079233 
L 785.081153 -194.977383 
L 786.496866 -195.941538 
L 787.912579 -196.973776 
L 789.328293 -198.076176 
L 789.328293 -248.761191 
L 789.328293 -248.761191 
L 787.912579 -238.691336 
L 786.496866 -229.697228 
L 785.081153 -221.740914 
L 783.66544 -214.784442 
L 782.249727 -208.789861 
L 780.834014 -203.71922 
L 779.4183 -199.534566 
L 778.002587 -196.197947 
L 776.586874 -193.671413 
L 775.171161 -191.917012 
L 773.755448 -190.896791 
L 772.339734 -190.5728 
L 770.924021 -190.907086 
L 769.508308 -191.861697 
L 768.092595 -193.398683 
L 766.676882 -195.480091 
L 765.261169 -198.06797 
L 763.845455 -201.124367 
L 762.429742 -204.611332 
L 761.014029 -208.490913 
L 759.598316 -212.725158 
L 758.182603 -217.276115 
L 756.766889 -222.105832 
L 755.351176 -227.176359 
L 753.935463 -232.449742 
L 752.51975 -237.888032 
L 751.104037 -243.453275 
L 749.688324 -249.10752 
L 748.27261 -254.812815 
L 746.856897 -260.53121 
L 745.441184 -266.224751 
L 744.025471 -271.855488 
L 742.609758 -277.385469 
L 741.194044 -282.776742 
L 739.778331 -287.991355 
L 738.362618 -292.991357 
L 736.946905 -297.738796 
L 735.531192 -302.19572 
L 734.115479 -306.324178 
L 732.699765 -310.086217 
L 731.284052 -313.443887 
L 729.868339 -316.359236 
L 728.452626 -318.794311 
L 727.036913 -320.711162 
L 725.621199 -322.072045 
L 724.205486 -322.864476 
L 722.789773 -323.125027 
L 721.37406 -322.895906 
L 719.958347 -322.219321 
L 718.542634 -321.13748 
L 717.12692 -319.692592 
L 715.711207 -317.926864 
L 714.295494 -315.882505 
L 712.879781 -313.601723 
L 711.464068 -311.126726 
L 710.048354 -308.499722 
L 708.632641 -305.762919 
L 707.216928 -302.958525 
L 705.801215 -300.128749 
L 704.385502 -297.315798 
L 702.969789 -294.561881 
L 701.554075 -291.909206 
L 700.138362 -289.399981 
L 698.722649 -287.076414 
L 697.306936 -284.980713 
L 695.891223 -283.155086 
L 694.475509 -281.641742 
L 693.059796 -280.475122 
L 691.644083 -279.644315 
L 690.22837 -279.121995 
L 688.812657 -278.880811 
L 687.396944 -278.893415 
L 685.98123 -279.132457 
L 684.565517 -279.570588 
L 683.149804 -280.180457 
L 681.734091 -280.934716 
L 680.318378 -281.806015 
L 678.902664 -282.767005 
L 677.486951 -283.790336 
L 676.071238 -284.848659 
L 674.655525 -285.914624 
L 673.239812 -286.960882 
L 671.824098 -287.960083 
L 670.408385 -288.884879 
L 668.992672 -289.707918 
L 667.576959 -290.401853 
L 666.161246 -290.939333 
L 664.745533 -291.293009 
L 663.329819 -291.435532 
L 661.914106 -291.340622 
L 660.498393 -291.006619 
L 659.08268 -290.45648 
L 657.666967 -289.714233 
L 656.251253 -288.803905 
L 654.83554 -287.749524 
L 653.419827 -286.575118 
L 652.004114 -285.304714 
L 650.588401 -283.962341 
L 649.172688 -282.572026 
L 647.756974 -281.157796 
L 646.341261 -279.743681 
L 644.925548 -278.353706 
L 643.509835 -277.0119 
L 642.094122 -275.742291 
L 640.678408 -274.568906 
L 639.262695 -273.515773 
L 637.846982 -272.606919 
L 636.431269 -271.866374 
L 635.015556 -271.318163 
L 633.599843 -270.986316 
L 632.184129 -270.894859 
L 630.768416 -271.067805 
L 629.352703 -271.518438 
L 627.93699 -272.230397 
L 626.521277 -273.182243 
L 625.105563 -274.352538 
L 623.68985 -275.719846 
L 622.274137 -277.262728 
L 620.858424 -278.959747 
L 619.442711 -280.789465 
L 618.026998 -282.730444 
L 616.611284 -284.761247 
L 615.195571 -286.860436 
L 613.779858 -289.006572 
L 612.364145 -291.17822 
L 610.948432 -293.35394 
L 609.532718 -295.512296 
L 608.117005 -297.631848 
L 606.701292 -299.691161 
L 605.285579 -301.668796 
L 603.869866 -303.543315 
L 602.454153 -305.29328 
L 601.038439 -306.897255 
L 599.622726 -308.333801 
L 598.207013 -309.583818 
L 596.7913 -310.648554 
L 595.375587 -311.539735 
L 593.959873 -312.269173 
L 592.54416 -312.848677 
L 591.128447 -313.290061 
L 589.712734 -313.605136 
L 588.297021 -313.805714 
L 586.881308 -313.903605 
L 585.465594 -313.910622 
L 584.049881 -313.838576 
L 582.634168 -313.69928 
L 581.218455 -313.504544 
L 579.802742 -313.266179 
L 578.387028 -312.995999 
L 576.971315 -312.705814 
L 575.555602 -312.407436 
L 574.139889 -312.112676 
L 572.724176 -311.833347 
L 571.308463 -311.581259 
L 569.892749 -311.368225 
L 568.477036 -311.206056 
L 567.061323 -311.106563 
L 565.64561 -311.081558 
L 564.229897 -311.142854 
L 562.814183 -311.30226 
L 561.39847 -311.57159 
L 559.982757 -311.962654 
L 558.567044 -312.487264 
L 557.151331 -313.157233 
L 555.735618 -313.98437 
L 554.319904 -314.980489 
L 552.904191 -316.157401 
L 551.488478 -317.526916 
L 550.072765 -319.100848 
L 548.657052 -320.891007 
L 547.241338 -322.909205 
L 545.825625 -325.167253 
L 544.409912 -327.676964 
L 542.994199 -330.450149 
L 541.578486 -333.498619 
L 540.162773 -336.834187 
L 538.747059 -340.468663 
L 537.331346 -344.41386 
L 535.915633 -348.681588 
z
" style="stroke: #808080; stroke-opacity: 0.1"/>
    </defs>
    <g clip-path="url(#pce081633d5)">
     <use xlink:href="#ma3939bb964" x="0" y="471.591406" style="fill: #808080; fill-opacity: 0.1; stroke: #808080; stroke-opacity: 0.1"/>
    </g>
   </g>
   <g id="matplotlib.axis_3">
    <g id="xtick_6">
     <g id="line2d_13">
      <g>
       <use xlink:href="#ma5bd85925c" x="535.915633" y="403.76" style="stroke: #000000; stroke-width: 0.8"/>
      </g>
     </g>
     <g id="text_13">
      <!-- 0 -->
      <g transform="translate(528.280633 428.99625)scale(0.24 -0.24)">
       <use xlink:href="#DejaVuSans-30"/>
      </g>
     </g>
    </g>
    <g id="xtick_7">
     <g id="line2d_14">
      <g>
       <use xlink:href="#ma5bd85925c" x="599.268798" y="403.76" style="stroke: #000000; stroke-width: 0.8"/>
      </g>
     </g>
     <g id="text_14">
      <!-- 100 -->
      <g transform="translate(576.363798 428.99625)scale(0.24 -0.24)">
       <use xlink:href="#DejaVuSans-31"/>
       <use xlink:href="#DejaVuSans-30" x="63.623047"/>
       <use xlink:href="#DejaVuSans-30" x="127.246094"/>
      </g>
     </g>
    </g>
    <g id="xtick_8">
     <g id="line2d_15">
      <g>
       <use xlink:href="#ma5bd85925c" x="662.621963" y="403.76" style="stroke: #000000; stroke-width: 0.8"/>
      </g>
     </g>
     <g id="text_15">
      <!-- 200 -->
      <g transform="translate(639.716963 428.99625)scale(0.24 -0.24)">
       <use xlink:href="#DejaVuSans-32"/>
       <use xlink:href="#DejaVuSans-30" x="63.623047"/>
       <use xlink:href="#DejaVuSans-30" x="127.246094"/>
      </g>
     </g>
    </g>
    <g id="xtick_9">
     <g id="line2d_16">
      <g>
       <use xlink:href="#ma5bd85925c" x="725.975128" y="403.76" style="stroke: #000000; stroke-width: 0.8"/>
      </g>
     </g>
     <g id="text_16">
      <!-- 300 -->
      <g transform="translate(703.070128 428.99625)scale(0.24 -0.24)">
       <use xlink:href="#DejaVuSans-33"/>
       <use xlink:href="#DejaVuSans-30" x="63.623047"/>
       <use xlink:href="#DejaVuSans-30" x="127.246094"/>
      </g>
     </g>
    </g>
    <g id="xtick_10">
     <g id="line2d_17">
      <g>
       <use xlink:href="#ma5bd85925c" x="789.328293" y="403.76" style="stroke: #000000; stroke-width: 0.8"/>
      </g>
     </g>
     <g id="text_17">
      <!-- 400 -->
      <g transform="translate(766.423293 428.99625)scale(0.24 -0.24)">
       <use xlink:href="#DejaVuSans-34"/>
       <use xlink:href="#DejaVuSans-30" x="63.623047"/>
       <use xlink:href="#DejaVuSans-30" x="127.246094"/>
      </g>
     </g>
    </g>
   </g>
   <g id="matplotlib.axis_4">
    <g id="ytick_6">
     <g id="line2d_18">
      <g>
       <use xlink:href="#m336a44a4a1" x="523.245" y="366.614161" style="stroke: #000000; stroke-width: 0.8"/>
      </g>
     </g>
    </g>
    <g id="ytick_7">
     <g id="line2d_19">
      <g>
       <use xlink:href="#m336a44a4a1" x="523.245" y="304.469744" style="stroke: #000000; stroke-width: 0.8"/>
      </g>
     </g>
    </g>
    <g id="ytick_8">
     <g id="line2d_20">
      <g>
       <use xlink:href="#m336a44a4a1" x="523.245" y="242.325328" style="stroke: #000000; stroke-width: 0.8"/>
      </g>
     </g>
    </g>
    <g id="ytick_9">
     <g id="line2d_21">
      <g>
       <use xlink:href="#m336a44a4a1" x="523.245" y="180.180911" style="stroke: #000000; stroke-width: 0.8"/>
      </g>
     </g>
    </g>
    <g id="ytick_10">
     <g id="line2d_22">
      <g>
       <use xlink:href="#m336a44a4a1" x="523.245" y="118.036495" style="stroke: #000000; stroke-width: 0.8"/>
      </g>
     </g>
    </g>
   </g>
   <g id="line2d_23">
    <path d="M 535.915633 135.026127 
L 537.331346 143.27202 
L 538.747059 150.67753 
L 540.162773 157.278855 
L 541.578486 163.112193 
L 542.994199 168.213743 
L 544.409912 172.619704 
L 545.825625 176.366275 
L 547.241338 179.489653 
L 548.657052 182.026039 
L 550.072765 184.01163 
L 551.488478 185.482625 
L 552.904191 186.475223 
L 554.319904 187.025622 
L 555.735618 187.170022 
L 557.151331 186.94462 
L 558.567044 186.385616 
L 559.982757 185.529208 
L 561.39847 184.411594 
L 562.814183 183.068975 
L 565.64561 179.85351 
L 568.477036 176.172404 
L 574.139889 168.571622 
L 576.971315 165.231126 
L 578.387028 163.802546 
L 579.802742 162.583344 
L 581.218455 161.609718 
L 582.634168 160.917867 
L 584.049881 160.54399 
L 585.465594 160.524284 
L 586.881308 160.89495 
L 588.297021 161.692184 
L 589.712734 162.952187 
L 591.128447 164.711157 
L 592.54416 167.005292 
L 593.959873 169.870792 
L 595.375587 173.343854 
L 596.7913 177.460678 
L 598.207013 182.257462 
L 599.622726 187.770081 
L 601.038439 193.995352 
L 603.869866 208.258947 
L 606.701292 224.354861 
L 610.948432 250.398491 
L 615.195571 276.615534 
L 618.026998 293.019739 
L 620.858424 307.745768 
L 622.274137 314.260061 
L 623.68985 320.091523 
L 625.105563 325.152392 
L 626.521277 329.354904 
L 627.93699 332.611299 
L 629.352703 334.833814 
L 630.768416 335.934685 
L 632.184129 335.846826 
L 633.599843 334.623885 
L 635.015556 332.363209 
L 636.431269 329.162207 
L 637.846982 325.118288 
L 639.262695 320.32886 
L 640.678408 314.891332 
L 643.509835 302.46161 
L 646.341261 288.60839 
L 653.419827 252.861492 
L 656.251253 240.162772 
L 657.666967 234.545913 
L 659.08268 229.547265 
L 660.498393 225.264237 
L 661.914106 221.794237 
L 663.329819 219.231275 
L 664.745533 217.591143 
L 666.161246 216.811424 
L 667.576959 216.826297 
L 668.992672 217.569942 
L 670.408385 218.976541 
L 671.824098 220.980273 
L 673.239812 223.515318 
L 674.655525 226.515858 
L 676.071238 229.916071 
L 678.902664 237.652242 
L 683.149804 250.608563 
L 687.396944 263.607688 
L 690.22837 271.419956 
L 691.644083 274.872486 
L 693.059796 277.934855 
L 694.475509 280.541276 
L 695.891223 282.651051 
L 697.306936 284.292786 
L 698.722649 285.506958 
L 700.138362 286.334041 
L 701.554075 286.814511 
L 702.969789 286.988843 
L 704.385502 286.897513 
L 705.801215 286.580995 
L 707.216928 286.079766 
L 710.048354 284.685073 
L 715.711207 281.460063 
L 717.12692 280.799161 
L 718.542634 280.27735 
L 719.958347 279.935105 
L 721.37406 279.812902 
L 722.789773 279.951216 
L 724.205486 280.390523 
L 725.621199 281.171297 
L 727.036913 282.329378 
L 728.452626 283.860253 
L 729.868339 285.738632 
L 731.284052 287.939052 
L 732.699765 290.436052 
L 734.115479 293.204169 
L 736.946905 299.451909 
L 739.778331 306.478576 
L 742.609758 314.080475 
L 748.27261 330.195185 
L 753.935463 346.166474 
L 756.766889 353.589096 
L 759.598316 360.364777 
L 762.429742 366.28982 
L 763.845455 368.869697 
L 765.261169 371.16053 
L 766.676882 373.136854 
L 768.092595 374.77321 
L 769.508308 376.044135 
L 770.924021 376.924167 
L 772.339734 377.387843 
L 773.755448 377.409703 
L 775.171161 376.964283 
L 776.586874 376.026123 
L 778.002587 374.56976 
L 779.4183 372.569732 
L 780.834014 370.000578 
L 782.249727 366.836834 
L 783.66544 363.05304 
L 785.081153 358.623734 
L 786.496866 353.523453 
L 787.912579 347.726735 
L 789.328293 341.208119 
L 789.328293 341.208119 
" clip-path="url(#pce081633d5)" style="fill: none; stroke-dasharray: 7.4,3.2; stroke-dashoffset: 0; stroke: #800080; stroke-width: 2"/>
   </g>
   <g id="line2d_24">
    <path d="M 535.915633 135.026127 
L 538.747059 143.037523 
L 541.578486 149.976741 
L 544.409912 155.922863 
L 547.241338 160.954967 
L 550.072765 165.152134 
L 552.904191 168.593444 
L 555.735618 171.357977 
L 558.567044 173.524813 
L 561.39847 175.173032 
L 564.229897 176.381714 
L 567.061323 177.229939 
L 569.892749 177.796787 
L 574.139889 178.292465 
L 582.634168 178.985897 
L 585.465594 179.418728 
L 588.297021 180.084201 
L 591.128447 181.061398 
L 593.959873 182.429399 
L 596.7913 184.267282 
L 598.207013 185.387143 
L 601.038439 188.068302 
L 603.869866 191.264019 
L 606.701292 194.814047 
L 616.611284 207.685192 
L 619.442711 210.82034 
L 620.858424 212.196048 
L 622.274137 213.416785 
L 623.68985 214.462253 
L 625.105563 215.312158 
L 626.521277 215.946204 
L 627.93699 216.344095 
L 629.352703 216.485534 
L 630.768416 216.350227 
L 632.184129 215.923394 
L 633.599843 215.22247 
L 635.015556 214.276552 
L 636.431269 213.11475 
L 637.846982 211.766178 
L 640.678408 208.625168 
L 643.509835 205.086419 
L 650.588401 196.027808 
L 653.419827 192.931019 
L 654.83554 191.611927 
L 656.251253 190.48452 
L 657.666967 189.577909 
L 659.08268 188.921205 
L 660.498393 188.543522 
L 661.914106 188.473971 
L 663.329819 188.74044 
L 664.745533 189.342659 
L 666.161246 190.252198 
L 667.576959 191.439408 
L 668.992672 192.874634 
L 670.408385 194.528225 
L 673.239812 198.371893 
L 676.071238 202.733194 
L 685.98123 218.649272 
L 688.812657 222.404349 
L 690.22837 224.001564 
L 691.644083 225.37236 
L 693.059796 226.487085 
L 694.475509 227.316106 
L 695.891223 227.843267 
L 697.306936 228.08965 
L 698.722649 228.082713 
L 700.138362 227.849915 
L 701.554075 227.418713 
L 702.969789 226.816567 
L 705.801215 225.209273 
L 708.632641 223.2477 
L 714.295494 219.140384 
L 717.12692 217.433974 
L 718.542634 216.763685 
L 719.958347 216.251952 
L 721.37406 215.926233 
L 722.789773 215.813985 
L 724.205486 215.942668 
L 725.621199 216.339739 
L 727.036913 217.029319 
L 728.452626 218.006476 
L 729.868339 219.251318 
L 731.284052 220.74383 
L 732.699765 222.463997 
L 735.531192 226.507232 
L 738.362618 231.220903 
L 741.194044 236.444888 
L 745.441184 244.887438 
L 752.51975 259.241533 
L 755.351176 264.615262 
L 758.182603 269.538575 
L 761.014029 273.851349 
L 762.429742 275.728747 
L 763.845455 277.393464 
L 765.261169 278.825486 
L 766.676882 280.004797 
L 768.092595 280.911383 
L 769.508308 281.525227 
L 770.924021 281.826316 
L 772.339734 281.794632 
L 773.755448 281.410163 
L 775.171161 280.652891 
L 776.586874 279.502802 
L 778.002587 277.939881 
L 779.4183 275.944112 
L 780.834014 273.495481 
L 782.249727 270.573971 
L 783.66544 267.159569 
L 785.081153 263.232258 
L 786.496866 258.772023 
L 787.912579 253.75885 
L 789.328293 248.172723 
L 789.328293 248.172723 
" clip-path="url(#pce081633d5)" style="fill: none; stroke-dasharray: 7.4,3.2; stroke-dashoffset: 0; stroke: #808080; stroke-opacity: 0.5; stroke-width: 2"/>
   </g>
   <g id="patch_7">
    <path d="M 523.245 403.76 
L 523.245 109.536 
" style="fill: none; stroke: #000000; stroke-width: 2; stroke-linejoin: miter; stroke-linecap: square"/>
   </g>
   <g id="patch_8">
    <path d="M 523.245 403.76 
L 801.998926 403.76 
" style="fill: none; stroke: #000000; stroke-width: 2; stroke-linejoin: miter; stroke-linecap: square"/>
   </g>
   <g id="text_18">
    <!-- $N_{steps} =$ 400,  -->
    <g transform="translate(598.496963 80.321562)scale(0.19 -0.19)">
     <use xlink:href="#DejaVuSans-Oblique-4e" transform="translate(0 0.78125)"/>
     <use xlink:href="#DejaVuSans-Oblique-73" transform="translate(74.804688 -15.625)scale(0.7)"/>
     <use xlink:href="#DejaVuSans-Oblique-74" transform="translate(111.274414 -15.625)scale(0.7)"/>
     <use xlink:href="#DejaVuSans-Oblique-65" transform="translate(138.720703 -15.625)scale(0.7)"/>
     <use xlink:href="#DejaVuSans-Oblique-70" transform="translate(181.787109 -15.625)scale(0.7)"/>
     <use xlink:href="#DejaVuSans-Oblique-73" transform="translate(226.220703 -15.625)scale(0.7)"/>
     <use xlink:href="#DejaVuSans-3d" transform="translate(284.907227 0.78125)"/>
     <use xlink:href="#DejaVuSans-20" transform="translate(388.178711 0.78125)"/>
     <use xlink:href="#DejaVuSans-34" transform="translate(419.96582 0.78125)"/>
     <use xlink:href="#DejaVuSans-30" transform="translate(483.588867 0.78125)"/>
     <use xlink:href="#DejaVuSans-30" transform="translate(547.211914 0.78125)"/>
     <use xlink:href="#DejaVuSans-2c" transform="translate(610.834961 0.78125)"/>
     <use xlink:href="#DejaVuSans-20" transform="translate(642.62207 0.78125)"/>
    </g>
    <!--  Human queried every 100 steps -->
    <g transform="translate(506.473135 103.536)scale(0.19 -0.19)">
     <use xlink:href="#DejaVuSans-20"/>
     <use xlink:href="#DejaVuSans-48" x="31.787109"/>
     <use xlink:href="#DejaVuSans-75" x="106.982422"/>
     <use xlink:href="#DejaVuSans-6d" x="170.361328"/>
     <use xlink:href="#DejaVuSans-61" x="267.773438"/>
     <use xlink:href="#DejaVuSans-6e" x="329.052734"/>
     <use xlink:href="#DejaVuSans-20" x="392.431641"/>
     <use xlink:href="#DejaVuSans-71" x="424.21875"/>
     <use xlink:href="#DejaVuSans-75" x="487.695312"/>
     <use xlink:href="#DejaVuSans-65" x="551.074219"/>
     <use xlink:href="#DejaVuSans-72" x="612.597656"/>
     <use xlink:href="#DejaVuSans-69" x="653.710938"/>
     <use xlink:href="#DejaVuSans-65" x="681.494141"/>
     <use xlink:href="#DejaVuSans-64" x="743.017578"/>
     <use xlink:href="#DejaVuSans-20" x="806.494141"/>
     <use xlink:href="#DejaVuSans-65" x="838.28125"/>
     <use xlink:href="#DejaVuSans-76" x="899.804688"/>
     <use xlink:href="#DejaVuSans-65" x="958.984375"/>
     <use xlink:href="#DejaVuSans-72" x="1020.507812"/>
     <use xlink:href="#DejaVuSans-79" x="1061.621094"/>
     <use xlink:href="#DejaVuSans-20" x="1120.800781"/>
     <use xlink:href="#DejaVuSans-31" x="1152.587891"/>
     <use xlink:href="#DejaVuSans-30" x="1216.210938"/>
     <use xlink:href="#DejaVuSans-30" x="1279.833984"/>
     <use xlink:href="#DejaVuSans-20" x="1343.457031"/>
     <use xlink:href="#DejaVuSans-73" x="1375.244141"/>
     <use xlink:href="#DejaVuSans-74" x="1427.34375"/>
     <use xlink:href="#DejaVuSans-65" x="1466.552734"/>
     <use xlink:href="#DejaVuSans-70" x="1528.076172"/>
     <use xlink:href="#DejaVuSans-73" x="1591.552734"/>
    </g>
   </g>
   <g id="legend_2">
    <g id="patch_9">
     <path d="M 714.878926 136.74975 
L 793.598926 136.74975 
Q 795.998926 136.74975 795.998926 134.34975 
L 795.998926 117.936 
Q 795.998926 115.536 793.598926 115.536 
L 714.878926 115.536 
Q 712.478926 115.536 712.478926 117.936 
L 712.478926 134.34975 
Q 712.478926 136.74975 714.878926 136.74975 
z
" style="fill: #ffffff; opacity: 0.8; stroke: #cccccc; stroke-linejoin: miter"/>
    </g>
    <g id="PathCollection_4">
     <g>
      <use xlink:href="#mee75cdd3f8" x="729.278926" y="126.304125" style="fill: #800080; fill-opacity: 0.5; stroke: #000000; stroke-opacity: 0.5"/>
     </g>
    </g>
    <g id="text_19">
     <!-- $T$ = 10 -->
     <g transform="translate(750.878926 129.454125)scale(0.12 -0.12)">
      <use xlink:href="#DejaVuSans-Oblique-54" transform="translate(0 0.78125)"/>
      <use xlink:href="#DejaVuSans-20" transform="translate(61.083984 0.78125)"/>
      <use xlink:href="#DejaVuSans-3d" transform="translate(92.871094 0.78125)"/>
      <use xlink:href="#DejaVuSans-20" transform="translate(176.660156 0.78125)"/>
      <use xlink:href="#DejaVuSans-31" transform="translate(208.447266 0.78125)"/>
      <use xlink:href="#DejaVuSans-30" transform="translate(272.070312 0.78125)"/>
     </g>
    </g>
   </g>
  </g>
  <g id="text_20">
   <!--    Step -->
   <g transform="translate(452.970547 460.44)scale(0.19 -0.19)">
    <defs>
     <path id="DejaVuSans-53" d="M 3425 4513 
L 3425 3897 
Q 3066 4069 2747 4153 
Q 2428 4238 2131 4238 
Q 1616 4238 1336 4038 
Q 1056 3838 1056 3469 
Q 1056 3159 1242 3001 
Q 1428 2844 1947 2747 
L 2328 2669 
Q 3034 2534 3370 2195 
Q 3706 1856 3706 1288 
Q 3706 609 3251 259 
Q 2797 -91 1919 -91 
Q 1588 -91 1214 -16 
Q 841 59 441 206 
L 441 856 
Q 825 641 1194 531 
Q 1563 422 1919 422 
Q 2459 422 2753 634 
Q 3047 847 3047 1241 
Q 3047 1584 2836 1778 
Q 2625 1972 2144 2069 
L 1759 2144 
Q 1053 2284 737 2584 
Q 422 2884 422 3419 
Q 422 4038 858 4394 
Q 1294 4750 2059 4750 
Q 2388 4750 2728 4690 
Q 3069 4631 3425 4513 
z
" transform="scale(0.015625)"/>
    </defs>
    <use xlink:href="#DejaVuSans-20"/>
    <use xlink:href="#DejaVuSans-20" x="31.787109"/>
    <use xlink:href="#DejaVuSans-20" x="63.574219"/>
    <use xlink:href="#DejaVuSans-53" x="95.361328"/>
    <use xlink:href="#DejaVuSans-74" x="158.837891"/>
    <use xlink:href="#DejaVuSans-65" x="198.046875"/>
    <use xlink:href="#DejaVuSans-70" x="259.570312"/>
   </g>
  </g>
  <g id="text_21">
   <!-- Mean Absolute Error -->
   <g transform="translate(138.097031 345.355703)rotate(-90)scale(0.19 -0.19)">
    <defs>
     <path id="DejaVuSans-4d" d="M 628 4666 
L 1569 4666 
L 2759 1491 
L 3956 4666 
L 4897 4666 
L 4897 0 
L 4281 0 
L 4281 4097 
L 3078 897 
L 2444 897 
L 1241 4097 
L 1241 0 
L 628 0 
L 628 4666 
z
" transform="scale(0.015625)"/>
     <path id="DejaVuSans-41" d="M 2188 4044 
L 1331 1722 
L 3047 1722 
L 2188 4044 
z
M 1831 4666 
L 2547 4666 
L 4325 0 
L 3669 0 
L 3244 1197 
L 1141 1197 
L 716 0 
L 50 0 
L 1831 4666 
z
" transform="scale(0.015625)"/>
     <path id="DejaVuSans-62" d="M 3116 1747 
Q 3116 2381 2855 2742 
Q 2594 3103 2138 3103 
Q 1681 3103 1420 2742 
Q 1159 2381 1159 1747 
Q 1159 1113 1420 752 
Q 1681 391 2138 391 
Q 2594 391 2855 752 
Q 3116 1113 3116 1747 
z
M 1159 2969 
Q 1341 3281 1617 3432 
Q 1894 3584 2278 3584 
Q 2916 3584 3314 3078 
Q 3713 2572 3713 1747 
Q 3713 922 3314 415 
Q 2916 -91 2278 -91 
Q 1894 -91 1617 61 
Q 1341 213 1159 525 
L 1159 0 
L 581 0 
L 581 4863 
L 1159 4863 
L 1159 2969 
z
" transform="scale(0.015625)"/>
     <path id="DejaVuSans-6f" d="M 1959 3097 
Q 1497 3097 1228 2736 
Q 959 2375 959 1747 
Q 959 1119 1226 758 
Q 1494 397 1959 397 
Q 2419 397 2687 759 
Q 2956 1122 2956 1747 
Q 2956 2369 2687 2733 
Q 2419 3097 1959 3097 
z
M 1959 3584 
Q 2709 3584 3137 3096 
Q 3566 2609 3566 1747 
Q 3566 888 3137 398 
Q 2709 -91 1959 -91 
Q 1206 -91 779 398 
Q 353 888 353 1747 
Q 353 2609 779 3096 
Q 1206 3584 1959 3584 
z
" transform="scale(0.015625)"/>
     <path id="DejaVuSans-6c" d="M 603 4863 
L 1178 4863 
L 1178 0 
L 603 0 
L 603 4863 
z
" transform="scale(0.015625)"/>
     <path id="DejaVuSans-45" d="M 628 4666 
L 3578 4666 
L 3578 4134 
L 1259 4134 
L 1259 2753 
L 3481 2753 
L 3481 2222 
L 1259 2222 
L 1259 531 
L 3634 531 
L 3634 0 
L 628 0 
L 628 4666 
z
" transform="scale(0.015625)"/>
    </defs>
    <use xlink:href="#DejaVuSans-4d"/>
    <use xlink:href="#DejaVuSans-65" x="86.279297"/>
    <use xlink:href="#DejaVuSans-61" x="147.802734"/>
    <use xlink:href="#DejaVuSans-6e" x="209.082031"/>
    <use xlink:href="#DejaVuSans-20" x="272.460938"/>
    <use xlink:href="#DejaVuSans-41" x="304.248047"/>
    <use xlink:href="#DejaVuSans-62" x="372.65625"/>
    <use xlink:href="#DejaVuSans-73" x="436.132812"/>
    <use xlink:href="#DejaVuSans-6f" x="488.232422"/>
    <use xlink:href="#DejaVuSans-6c" x="549.414062"/>
    <use xlink:href="#DejaVuSans-75" x="577.197266"/>
    <use xlink:href="#DejaVuSans-74" x="640.576172"/>
    <use xlink:href="#DejaVuSans-65" x="679.785156"/>
    <use xlink:href="#DejaVuSans-20" x="741.308594"/>
    <use xlink:href="#DejaVuSans-45" x="773.095703"/>
    <use xlink:href="#DejaVuSans-72" x="836.279297"/>
    <use xlink:href="#DejaVuSans-72" x="875.642578"/>
    <use xlink:href="#DejaVuSans-6f" x="914.505859"/>
    <use xlink:href="#DejaVuSans-72" x="975.6875"/>
   </g>
  </g>
  <g id="legend_3">
   <g id="patch_10">
    <path d="M 10.8 39.06 
L 956.52 39.06 
Q 960.12 39.06 960.12 35.46 
L 960.12 10.8 
Q 960.12 7.2 956.52 7.2 
L 10.8 7.2 
Q 7.2 7.2 7.2 10.8 
L 7.2 35.46 
Q 7.2 39.06 10.8 39.06 
z
" style="fill: #ffffff; opacity: 0.8; stroke: #cccccc; stroke-linejoin: miter"/>
   </g>
   <g id="line2d_25">
    <path d="M 14.4 21.78 
L 32.4 21.78 
L 50.4 21.78 
" style="fill: none; stroke-dasharray: 7.4,3.2; stroke-dashoffset: 0; stroke: #ff0000; stroke-width: 2"/>
   </g>
   <g id="text_22">
    <!-- Human + EPIG ($\epsilon = 0$, $T$ = 10) -->
    <g transform="translate(64.8 28.08)scale(0.18 -0.18)">
     <defs>
      <path id="DejaVuSans-2b" d="M 2944 4013 
L 2944 2272 
L 4684 2272 
L 4684 1741 
L 2944 1741 
L 2944 0 
L 2419 0 
L 2419 1741 
L 678 1741 
L 678 2272 
L 2419 2272 
L 2419 4013 
L 2944 4013 
z
" transform="scale(0.015625)"/>
      <path id="DejaVuSans-50" d="M 1259 4147 
L 1259 2394 
L 2053 2394 
Q 2494 2394 2734 2622 
Q 2975 2850 2975 3272 
Q 2975 3691 2734 3919 
Q 2494 4147 2053 4147 
L 1259 4147 
z
M 628 4666 
L 2053 4666 
Q 2838 4666 3239 4311 
Q 3641 3956 3641 3272 
Q 3641 2581 3239 2228 
Q 2838 1875 2053 1875 
L 1259 1875 
L 1259 0 
L 628 0 
L 628 4666 
z
" transform="scale(0.015625)"/>
      <path id="DejaVuSans-49" d="M 628 4666 
L 1259 4666 
L 1259 0 
L 628 0 
L 628 4666 
z
" transform="scale(0.015625)"/>
      <path id="DejaVuSans-47" d="M 3809 666 
L 3809 1919 
L 2778 1919 
L 2778 2438 
L 4434 2438 
L 4434 434 
Q 4069 175 3628 42 
Q 3188 -91 2688 -91 
Q 1594 -91 976 548 
Q 359 1188 359 2328 
Q 359 3472 976 4111 
Q 1594 4750 2688 4750 
Q 3144 4750 3555 4637 
Q 3966 4525 4313 4306 
L 4313 3634 
Q 3963 3931 3569 4081 
Q 3175 4231 2741 4231 
Q 1884 4231 1454 3753 
Q 1025 3275 1025 2328 
Q 1025 1384 1454 906 
Q 1884 428 2741 428 
Q 3075 428 3337 486 
Q 3600 544 3809 666 
z
" transform="scale(0.015625)"/>
      <path id="DejaVuSans-28" d="M 1984 4856 
Q 1566 4138 1362 3434 
Q 1159 2731 1159 2009 
Q 1159 1288 1364 580 
Q 1569 -128 1984 -844 
L 1484 -844 
Q 1016 -109 783 600 
Q 550 1309 550 2009 
Q 550 2706 781 3412 
Q 1013 4119 1484 4856 
L 1984 4856 
z
" transform="scale(0.015625)"/>
      <path id="DejaVuSans-Oblique-3b5" d="M 1263 1888 
Q 925 1963 778 2166 
Q 669 2309 669 2503 
Q 669 3034 1175 3344 
Q 1575 3588 2188 3588 
Q 2425 3588 2684 3550 
Q 2944 3513 3234 3438 
L 3134 2916 
Q 2847 3006 2606 3047 
Q 2359 3088 2138 3088 
Q 1766 3088 1522 2944 
Q 1228 2772 1228 2522 
Q 1228 2356 1381 2241 
Q 1563 2103 1925 2103 
L 2409 2103 
L 2319 1628 
L 1856 1628 
Q 1425 1628 1172 1469 
Q 828 1253 828 916 
Q 828 703 1013 563 
Q 1244 388 1716 388 
Q 2006 388 2284 444 
Q 2563 503 2806 619 
L 2700 84 
Q 2403 -3 2131 -47 
Q 1859 -91 1609 -91 
Q 866 -91 516 194 
Q 250 413 250 781 
Q 250 1278 600 1584 
Q 859 1813 1263 1888 
z
" transform="scale(0.015625)"/>
      <path id="DejaVuSans-29" d="M 513 4856 
L 1013 4856 
Q 1481 4119 1714 3412 
Q 1947 2706 1947 2009 
Q 1947 1309 1714 600 
Q 1481 -109 1013 -844 
L 513 -844 
Q 928 -128 1133 580 
Q 1338 1288 1338 2009 
Q 1338 2731 1133 3434 
Q 928 4138 513 4856 
z
" transform="scale(0.015625)"/>
     </defs>
     <use xlink:href="#DejaVuSans-48" transform="translate(0 0.125)"/>
     <use xlink:href="#DejaVuSans-75" transform="translate(75.195312 0.125)"/>
     <use xlink:href="#DejaVuSans-6d" transform="translate(138.574219 0.125)"/>
     <use xlink:href="#DejaVuSans-61" transform="translate(235.986328 0.125)"/>
     <use xlink:href="#DejaVuSans-6e" transform="translate(297.265625 0.125)"/>
     <use xlink:href="#DejaVuSans-20" transform="translate(360.644531 0.125)"/>
     <use xlink:href="#DejaVuSans-2b" transform="translate(392.431641 0.125)"/>
     <use xlink:href="#DejaVuSans-20" transform="translate(476.220703 0.125)"/>
     <use xlink:href="#DejaVuSans-45" transform="translate(508.007812 0.125)"/>
     <use xlink:href="#DejaVuSans-50" transform="translate(571.191406 0.125)"/>
     <use xlink:href="#DejaVuSans-49" transform="translate(631.494141 0.125)"/>
     <use xlink:href="#DejaVuSans-47" transform="translate(660.986328 0.125)"/>
     <use xlink:href="#DejaVuSans-20" transform="translate(738.476562 0.125)"/>
     <use xlink:href="#DejaVuSans-28" transform="translate(770.263672 0.125)"/>
     <use xlink:href="#DejaVuSans-Oblique-3b5" transform="translate(809.277344 0.125)"/>
     <use xlink:href="#DejaVuSans-3d" transform="translate(882.8125 0.125)"/>
     <use xlink:href="#DejaVuSans-30" transform="translate(986.083984 0.125)"/>
     <use xlink:href="#DejaVuSans-2c" transform="translate(1049.707031 0.125)"/>
     <use xlink:href="#DejaVuSans-20" transform="translate(1081.494141 0.125)"/>
     <use xlink:href="#DejaVuSans-Oblique-54" transform="translate(1113.28125 0.125)"/>
     <use xlink:href="#DejaVuSans-20" transform="translate(1174.365234 0.125)"/>
     <use xlink:href="#DejaVuSans-3d" transform="translate(1206.152344 0.125)"/>
     <use xlink:href="#DejaVuSans-20" transform="translate(1289.941406 0.125)"/>
     <use xlink:href="#DejaVuSans-31" transform="translate(1321.728516 0.125)"/>
     <use xlink:href="#DejaVuSans-30" transform="translate(1385.351562 0.125)"/>
     <use xlink:href="#DejaVuSans-29" transform="translate(1448.974609 0.125)"/>
    </g>
   </g>
   <g id="line2d_26">
    <path d="M 368.64 21.78 
L 386.64 21.78 
L 404.64 21.78 
" style="fill: none; stroke-dasharray: 7.4,3.2; stroke-dashoffset: 0; stroke: #800080; stroke-width: 2"/>
   </g>
   <g id="text_23">
    <!-- Human + Uncertainty ($\epsilon = 0$, $T$ = 10) -->
    <g transform="translate(419.04 28.08)scale(0.18 -0.18)">
     <defs>
      <path id="DejaVuSans-55" d="M 556 4666 
L 1191 4666 
L 1191 1831 
Q 1191 1081 1462 751 
Q 1734 422 2344 422 
Q 2950 422 3222 751 
Q 3494 1081 3494 1831 
L 3494 4666 
L 4128 4666 
L 4128 1753 
Q 4128 841 3676 375 
Q 3225 -91 2344 -91 
Q 1459 -91 1007 375 
Q 556 841 556 1753 
L 556 4666 
z
" transform="scale(0.015625)"/>
      <path id="DejaVuSans-63" d="M 3122 3366 
L 3122 2828 
Q 2878 2963 2633 3030 
Q 2388 3097 2138 3097 
Q 1578 3097 1268 2742 
Q 959 2388 959 1747 
Q 959 1106 1268 751 
Q 1578 397 2138 397 
Q 2388 397 2633 464 
Q 2878 531 3122 666 
L 3122 134 
Q 2881 22 2623 -34 
Q 2366 -91 2075 -91 
Q 1284 -91 818 406 
Q 353 903 353 1747 
Q 353 2603 823 3093 
Q 1294 3584 2113 3584 
Q 2378 3584 2631 3529 
Q 2884 3475 3122 3366 
z
" transform="scale(0.015625)"/>
     </defs>
     <use xlink:href="#DejaVuSans-48" transform="translate(0 0.015625)"/>
     <use xlink:href="#DejaVuSans-75" transform="translate(75.195312 0.015625)"/>
     <use xlink:href="#DejaVuSans-6d" transform="translate(138.574219 0.015625)"/>
     <use xlink:href="#DejaVuSans-61" transform="translate(235.986328 0.015625)"/>
     <use xlink:href="#DejaVuSans-6e" transform="translate(297.265625 0.015625)"/>
     <use xlink:href="#DejaVuSans-20" transform="translate(360.644531 0.015625)"/>
     <use xlink:href="#DejaVuSans-2b" transform="translate(392.431641 0.015625)"/>
     <use xlink:href="#DejaVuSans-20" transform="translate(476.220703 0.015625)"/>
     <use xlink:href="#DejaVuSans-55" transform="translate(508.007812 0.015625)"/>
     <use xlink:href="#DejaVuSans-6e" transform="translate(581.201172 0.015625)"/>
     <use xlink:href="#DejaVuSans-63" transform="translate(644.580078 0.015625)"/>
     <use xlink:href="#DejaVuSans-65" transform="translate(699.560547 0.015625)"/>
     <use xlink:href="#DejaVuSans-72" transform="translate(761.083984 0.015625)"/>
     <use xlink:href="#DejaVuSans-74" transform="translate(802.197266 0.015625)"/>
     <use xlink:href="#DejaVuSans-61" transform="translate(841.40625 0.015625)"/>
     <use xlink:href="#DejaVuSans-69" transform="translate(902.685547 0.015625)"/>
     <use xlink:href="#DejaVuSans-6e" transform="translate(930.46875 0.015625)"/>
     <use xlink:href="#DejaVuSans-74" transform="translate(993.847656 0.015625)"/>
     <use xlink:href="#DejaVuSans-79" transform="translate(1033.056641 0.015625)"/>
     <use xlink:href="#DejaVuSans-20" transform="translate(1092.236328 0.015625)"/>
     <use xlink:href="#DejaVuSans-28" transform="translate(1124.023438 0.015625)"/>
     <use xlink:href="#DejaVuSans-Oblique-3b5" transform="translate(1163.037109 0.015625)"/>
     <use xlink:href="#DejaVuSans-3d" transform="translate(1236.572266 0.015625)"/>
     <use xlink:href="#DejaVuSans-30" transform="translate(1339.84375 0.015625)"/>
     <use xlink:href="#DejaVuSans-2c" transform="translate(1403.466797 0.015625)"/>
     <use xlink:href="#DejaVuSans-20" transform="translate(1435.253906 0.015625)"/>
     <use xlink:href="#DejaVuSans-Oblique-54" transform="translate(1467.041016 0.015625)"/>
     <use xlink:href="#DejaVuSans-20" transform="translate(1528.125 0.015625)"/>
     <use xlink:href="#DejaVuSans-3d" transform="translate(1559.912109 0.015625)"/>
     <use xlink:href="#DejaVuSans-20" transform="translate(1643.701172 0.015625)"/>
     <use xlink:href="#DejaVuSans-31" transform="translate(1675.488281 0.015625)"/>
     <use xlink:href="#DejaVuSans-30" transform="translate(1739.111328 0.015625)"/>
     <use xlink:href="#DejaVuSans-29" transform="translate(1802.734375 0.015625)"/>
    </g>
   </g>
   <g id="line2d_27">
    <path d="M 786.6 21.78 
L 804.6 21.78 
L 822.6 21.78 
" style="fill: none; stroke-dasharray: 7.4,3.2; stroke-dashoffset: 0; stroke: #808080; stroke-opacity: 0.5; stroke-width: 2"/>
   </g>
   <g id="text_24">
    <!-- No Feedback -->
    <g transform="translate(837 28.08)scale(0.18 -0.18)">
     <defs>
      <path id="DejaVuSans-4e" d="M 628 4666 
L 1478 4666 
L 3547 763 
L 3547 4666 
L 4159 4666 
L 4159 0 
L 3309 0 
L 1241 3903 
L 1241 0 
L 628 0 
L 628 4666 
z
" transform="scale(0.015625)"/>
      <path id="DejaVuSans-46" d="M 628 4666 
L 3309 4666 
L 3309 4134 
L 1259 4134 
L 1259 2759 
L 3109 2759 
L 3109 2228 
L 1259 2228 
L 1259 0 
L 628 0 
L 628 4666 
z
" transform="scale(0.015625)"/>
      <path id="DejaVuSans-6b" d="M 581 4863 
L 1159 4863 
L 1159 1991 
L 2875 3500 
L 3609 3500 
L 1753 1863 
L 3688 0 
L 2938 0 
L 1159 1709 
L 1159 0 
L 581 0 
L 581 4863 
z
" transform="scale(0.015625)"/>
     </defs>
     <use xlink:href="#DejaVuSans-4e"/>
     <use xlink:href="#DejaVuSans-6f" x="74.804688"/>
     <use xlink:href="#DejaVuSans-20" x="135.986328"/>
     <use xlink:href="#DejaVuSans-46" x="167.773438"/>
     <use xlink:href="#DejaVuSans-65" x="219.792969"/>
     <use xlink:href="#DejaVuSans-65" x="281.316406"/>
     <use xlink:href="#DejaVuSans-64" x="342.839844"/>
     <use xlink:href="#DejaVuSans-62" x="406.316406"/>
     <use xlink:href="#DejaVuSans-61" x="469.792969"/>
     <use xlink:href="#DejaVuSans-63" x="531.072266"/>
     <use xlink:href="#DejaVuSans-6b" x="586.052734"/>
    </g>
   </g>
  </g>
 </g>
 <defs>
  <clipPath id="p05d61eb8ce">
   <rect x="199.33" y="109.536" width="278.753926" height="294.224"/>
  </clipPath>
  <clipPath id="pce081633d5">
   <rect x="523.245" y="109.536" width="278.753926" height="294.224"/>
  </clipPath>
 </defs>
</svg>
